<?xml version="1.0" encoding="UTF-8" standalone="no"?>
<!-- Created with Inkscape (http://www.inkscape.org/) -->

<svg
   xmlns:ns0="http://www.iki.fi/pav/software/textext/"
   xmlns:dc="http://purl.org/dc/elements/1.1/"
   xmlns:cc="http://creativecommons.org/ns#"
   xmlns:rdf="http://www.w3.org/1999/02/22-rdf-syntax-ns#"
   xmlns:svg="http://www.w3.org/2000/svg"
   xmlns="http://www.w3.org/2000/svg"
   xmlns:sodipodi="http://sodipodi.sourceforge.net/DTD/sodipodi-0.dtd"
   xmlns:inkscape="http://www.inkscape.org/namespaces/inkscape"
   id="svg8"
   version="1.1"
   viewBox="0 0 42.750002 41.694007"
   height="1.6414963in"
   width="1.6830709in"
   inkscape:version="0.92.1 r15371"
   sodipodi:docname="ordering-ex2-original.svg">
  <sodipodi:namedview
     inkscape:guide-bbox="true"
     showguides="true"
     inkscape:window-maximized="0"
     inkscape:window-y="13"
     inkscape:window-x="10"
     inkscape:window-height="994"
     inkscape:window-width="1805"
     units="in"
     showgrid="false"
     inkscape:current-layer="layer1"
     inkscape:document-units="mm"
     inkscape:cy="83.270828"
     inkscape:cx="89.469342"
     inkscape:zoom="3.959798"
     inkscape:pageshadow="2"
     inkscape:pageopacity="0.0"
     borderopacity="1.0"
     bordercolor="#666666"
     pagecolor="#ffffff"
     id="base"
     fit-margin-top="0"
     fit-margin-left="0"
     fit-margin-right="0"
     fit-margin-bottom="0" />
  <defs
     id="defs2" />
  <metadata
     id="metadata5">
    <rdf:RDF>
      <cc:Work
         rdf:about="">
        <dc:format>image/svg+xml</dc:format>
        <dc:type
           rdf:resource="http://purl.org/dc/dcmitype/StillImage" />
        <dc:title></dc:title>
      </cc:Work>
    </rdf:RDF>
  </metadata>
  <g
     transform="translate(2.7038304,-257.28687)"
     id="layer1"
     inkscape:groupmode="layer"
     inkscape:label="Layer 1">
    <path
       style="fill:none;fill-rule:evenodd;stroke:#c2c2c2;stroke-width:0.5291667;stroke-linecap:butt;stroke-linejoin:miter;stroke-miterlimit:4;stroke-dasharray:none;stroke-opacity:1"
       d="m 11.392363,264.52673 -2.6058774,1.97112"
       id="path5502"
       inkscape:connector-curvature="0" />
    <path
       style="fill:none;fill-rule:evenodd;stroke:#c2c2c2;stroke-width:0.5291667;stroke-linecap:butt;stroke-linejoin:miter;stroke-miterlimit:4;stroke-dasharray:none;stroke-opacity:1"
       d="M 12.361215,265.39536 5.8131122,275.1841"
       id="path5504"
       inkscape:connector-curvature="0" />
    <path
       style="fill:none;fill-rule:evenodd;stroke:#c2c2c2;stroke-width:0.5291667;stroke-linecap:butt;stroke-linejoin:miter;stroke-miterlimit:4;stroke-dasharray:none;stroke-opacity:1"
       d="M 13.421941,265.78792 7.3292413,283.14441"
       id="path5506"
       inkscape:connector-curvature="0"
       sodipodi:nodetypes="cc" />
    <path
       style="fill:none;fill-rule:evenodd;stroke:#c2c2c2;stroke-width:0.5291667;stroke-linecap:butt;stroke-linejoin:miter;stroke-miterlimit:4;stroke-dasharray:none;stroke-opacity:1"
       d="m 14.115171,288.51417 0.158692,-22.74296"
       id="path5508"
       inkscape:connector-curvature="0"
       sodipodi:nodetypes="cc" />
    <path
       style="fill:none;fill-rule:evenodd;stroke:#c2c2c2;stroke-width:0.5291667;stroke-linecap:butt;stroke-linejoin:miter;stroke-miterlimit:4;stroke-dasharray:none;stroke-opacity:1"
       d="M 22.158854,288.59001 15.079131,265.53137"
       id="path5510"
       inkscape:connector-curvature="0"
       sodipodi:nodetypes="cc" />
    <path
       style="fill:none;fill-rule:evenodd;stroke:#c2c2c2;stroke-width:0.5291667;stroke-linecap:butt;stroke-linejoin:miter;stroke-miterlimit:4;stroke-dasharray:none;stroke-opacity:1"
       d="M 28.66095,283.74652 15.869128,265.02786"
       id="path5512"
       inkscape:connector-curvature="0"
       sodipodi:nodetypes="cc" />
    <path
       style="fill:none;fill-rule:evenodd;stroke:#c2c2c2;stroke-width:0.5291667;stroke-linecap:butt;stroke-linejoin:miter;stroke-miterlimit:4;stroke-dasharray:none;stroke-opacity:1"
       d="M 30.903039,275.81887 16.353554,264.51002"
       id="path5514"
       inkscape:connector-curvature="0"
       sodipodi:nodetypes="cc" />
    <path
       style="fill:none;fill-rule:evenodd;stroke:#c2c2c2;stroke-width:0.5291667;stroke-linecap:butt;stroke-linejoin:miter;stroke-miterlimit:4;stroke-dasharray:none;stroke-opacity:1"
       d="m 27.737492,268.48853 -11.083259,-4.5548"
       id="path5516"
       inkscape:connector-curvature="0"
       sodipodi:nodetypes="cc" />
    <path
       style="fill:none;fill-rule:evenodd;stroke:#c2c2c2;stroke-width:0.5291667;stroke-linecap:butt;stroke-linejoin:miter;stroke-miterlimit:4;stroke-dasharray:none;stroke-opacity:1"
       d="m 20.112032,262.88971 -3.225967,-0.12616"
       id="path5518"
       inkscape:connector-curvature="0" />
    <text
       xml:space="preserve"
       style="font-style:normal;font-weight:normal;font-size:4.93888903px;line-height:1.25;font-family:sans-serif;letter-spacing:0px;word-spacing:0px;fill:#000000;fill-opacity:1;stroke:none;stroke-width:0.26458332"
       x="7.9155102"
       y="260.57617"
       id="text6099"><tspan
         sodipodi:role="line"
         id="tspan6097"
         x="7.9155102"
         y="260.57617"
         style="font-style:normal;font-variant:normal;font-weight:normal;font-stretch:normal;font-size:4.93888903px;font-family:LMRoman10;-inkscape-font-specification:LMRoman10;stroke-width:0.26458332">1</tspan></text>
    <text
       xml:space="preserve"
       style="font-style:normal;font-weight:normal;font-size:4.93888903px;line-height:1.25;font-family:sans-serif;letter-spacing:0px;word-spacing:0px;fill:#000000;fill-opacity:1;stroke:none;stroke-width:0.26458332"
       x="0.26444218"
       y="266.54935"
       id="text6099-1"><tspan
         sodipodi:role="line"
         id="tspan6097-34"
         x="0.26444218"
         y="266.54935"
         style="font-style:normal;font-variant:normal;font-weight:normal;font-stretch:normal;font-size:4.93888903px;font-family:LMRoman10;-inkscape-font-specification:LMRoman10;stroke-width:0.26458332">2</tspan></text>
    <text
       xml:space="preserve"
       style="font-style:normal;font-weight:normal;font-size:4.93888903px;line-height:1.25;font-family:sans-serif;letter-spacing:0px;word-spacing:0px;fill:#000000;fill-opacity:1;stroke:none;stroke-width:0.26458332"
       x="-2.9112637"
       y="278.96762"
       id="text6099-5"><tspan
         sodipodi:role="line"
         id="tspan6097-1"
         x="-2.9112637"
         y="278.96762"
         style="font-style:normal;font-variant:normal;font-weight:normal;font-stretch:normal;font-size:4.93888903px;font-family:LMRoman10;-inkscape-font-specification:LMRoman10;stroke-width:0.26458332">3</tspan></text>
    <text
       xml:space="preserve"
       style="font-style:normal;font-weight:normal;font-size:4.93888903px;line-height:1.25;font-family:sans-serif;letter-spacing:0px;word-spacing:0px;fill:#000000;fill-opacity:1;stroke:none;stroke-width:0.26458332"
       x="0.75675958"
       y="291.50806"
       id="text6099-8"><tspan
         sodipodi:role="line"
         id="tspan6097-4"
         x="0.75675958"
         y="291.50806"
         style="font-style:normal;font-variant:normal;font-weight:normal;font-stretch:normal;font-size:4.93888903px;font-family:LMRoman10;-inkscape-font-specification:LMRoman10;stroke-width:0.26458332">4</tspan></text>
    <g
       id="content-0"
       transform="matrix(0.59999999,0,0,-0.59999999,-77.404283,676.25675)"
       xml:space="preserve"
       stroke-miterlimit="10.433"
       font-style="normal"
       font-variant="normal"
       font-weight="normal"
       font-stretch="normal"
       font-size-adjust="none"
       letter-spacing="normal"
       word-spacing="normal"
       ns0:text="$\\times$"
       ns0:preamble="C:\\Users\\Daniel\\AppData\\Roaming\\inkscape\\extensions\\default_packages.tex"
       style="font-style:normal;font-variant:normal;font-weight:normal;font-stretch:normal;letter-spacing:normal;word-spacing:normal;text-anchor:start;opacity:1;fill:#ff0000;fill-opacity:1;fill-rule:evenodd;stroke:#000000;stroke-linecap:butt;stroke-linejoin:miter;stroke-miterlimit:10.43299961;stroke-dasharray:none;stroke-dashoffset:0;stroke-opacity:1"><path
         d="m 152.59,660 -1.99,1.97 c -0.12,0.12 -0.14,0.14 -0.22,0.14 -0.1,0 -0.2,-0.09 -0.2,-0.2 0,-0.07 0.02,-0.09 0.13,-0.19 l 1.99,-2 -1.99,-2 c -0.11,-0.11 -0.13,-0.13 -0.13,-0.2 0,-0.11 0.1,-0.2 0.2,-0.2 0.08,0 0.1,0.02 0.22,0.14 l 1.98,1.98 2.07,-2.06 c 0.01,-0.01 0.09,-0.06 0.14,-0.06 0.12,0 0.2,0.09 0.2,0.2 0,0.02 0,0.06 -0.03,0.11 -0.01,0.02 -1.59,1.58 -2.09,2.09 l 1.83,1.82 c 0.04,0.06 0.2,0.18 0.25,0.24 0,0.02 0.04,0.06 0.04,0.13 0,0.11 -0.08,0.2 -0.2,0.2 -0.08,0 -0.11,-0.04 -0.22,-0.15 z"
         font-size-adjust="none"
         font-stretch="normal"
         font-style="normal"
         font-variant="normal"
         font-weight="normal"
         letter-spacing="normal"
         stroke-miterlimit="10.433"
         word-spacing="normal"
         style="font-style:normal;font-variant:normal;font-weight:normal;font-stretch:normal;letter-spacing:normal;word-spacing:normal;text-anchor:start;fill:#ff0000;fill-opacity:1;fill-rule:evenodd;stroke:#000000;stroke-width:0;stroke-linecap:butt;stroke-linejoin:miter;stroke-miterlimit:10.43299961;stroke-dasharray:none;stroke-dashoffset:0;stroke-opacity:1"
         id="path6401-3"
         inkscape:connector-curvature="0" /></g>    <path
       id="path1184"
       d="m 36.701479,277.15622 a 3.0427088,3.0427084 0 0 1 -3.04271,3.04271 3.0427088,3.0427084 0 0 1 -3.042708,-3.04271 3.0427088,3.0427084 0 0 1 3.042708,-3.04271 3.0427088,3.0427084 0 0 1 3.04271,3.04271 z"
       style="fill:none;stroke:#000000;stroke-width:0.26458332;stroke-miterlimit:4;stroke-dasharray:none;stroke-opacity:1"
       inkscape:connector-curvature="0" />
    <path
       id="path7662"
       d="m 33.808052,286.05282 a 3.0427088,3.0427084 0 0 1 -3.04271,3.04271 3.0427088,3.0427084 0 0 1 -3.042708,-3.04271 3.0427088,3.0427084 0 0 1 3.042708,-3.04271 3.0427088,3.0427084 0 0 1 3.04271,3.04271 z"
       style="fill:none;stroke:#000000;stroke-width:0.26458332;stroke-miterlimit:4;stroke-dasharray:none;stroke-opacity:1"
       inkscape:connector-curvature="0" />
    <path
       id="path8264"
       d="m 26.239455,291.54941 a 3.0427088,3.0427084 0 0 1 -3.04271,3.04271 3.0427088,3.0427084 0 0 1 -3.042708,-3.04271 3.0427088,3.0427084 0 0 1 3.042708,-3.04271 3.0427088,3.0427084 0 0 1 3.04271,3.04271 z"
       style="fill:none;stroke:#000000;stroke-width:0.26458332;stroke-miterlimit:4;stroke-dasharray:none;stroke-opacity:1"
       inkscape:connector-curvature="0" />
    <path
       id="path9165"
       d="m 16.88517,291.55377 a 3.0427088,3.0427084 0 0 1 -3.04271,3.04271 3.0427088,3.0427084 0 0 1 -3.042708,-3.04271 3.0427088,3.0427084 0 0 1 3.042708,-3.04271 3.0427088,3.0427084 0 0 1 3.04271,3.04271 z"
       style="fill:none;stroke:#000000;stroke-width:0.26458332;stroke-miterlimit:4;stroke-dasharray:none;stroke-opacity:1"
       inkscape:connector-curvature="0" />
    <path
       id="path0211"
       d="m 9.318844,286.053 a 3.0427088,3.0427084 0 0 1 -3.04271,3.04271 3.0427088,3.0427084 0 0 1 -3.042708,-3.04271 3.0427088,3.0427084 0 0 1 3.042708,-3.04271 3.0427088,3.0427084 0 0 1 3.04271,3.04271 z"
       style="fill:none;stroke:#000000;stroke-width:0.26458332;stroke-miterlimit:4;stroke-dasharray:none;stroke-opacity:1"
       inkscape:connector-curvature="0" />
    <path
       id="path1807"
       d="m 6.425641,277.15785 a 3.0427088,3.0427084 0 0 1 -3.04271,3.04271 3.0427088,3.0427084 0 0 1 -3.042708,-3.04271 3.0427088,3.0427084 0 0 1 3.042708,-3.04271 3.0427088,3.0427084 0 0 1 3.04271,3.04271 z"
       style="fill:none;stroke:#000000;stroke-width:0.26458332;stroke-miterlimit:4;stroke-dasharray:none;stroke-opacity:1"
       inkscape:connector-curvature="0" />
    <path
       id="path7270"
       d="m 9.318083,268.26095 a 3.0427088,3.0427084 0 0 1 -3.04271,3.04271 3.0427088,3.0427084 0 0 1 -3.042708,-3.04271 3.0427088,3.0427084 0 0 1 3.042708,-3.04271 3.0427088,3.0427084 0 0 1 3.04271,3.04271 z"
       style="fill:none;stroke:#000000;stroke-width:0.26458332;stroke-miterlimit:4;stroke-dasharray:none;stroke-opacity:1"
       inkscape:connector-curvature="0" />
    <path
       id="path0294"
       d="m 16.886065,262.76355 a 3.0427088,3.0427084 0 0 1 -3.04271,3.04271 3.0427088,3.0427084 0 0 1 -3.042708,-3.04271 3.0427088,3.0427084 0 0 1 3.042708,-3.04271 3.0427088,3.0427084 0 0 1 3.04271,3.04271 z"
       style="fill:none;stroke:#000000;stroke-width:0.26458332;stroke-miterlimit:4;stroke-dasharray:none;stroke-opacity:1"
       inkscape:connector-curvature="0" />
    <path
       id="path1698"
       d="m 26.239465,262.76303 a 3.0427088,3.0427084 0 0 1 -3.04271,3.04271 3.0427088,3.0427084 0 0 1 -3.042708,-3.04271 3.0427088,3.0427084 0 0 1 3.042708,-3.04271 3.0427088,3.0427084 0 0 1 3.04271,3.04271 z"
       style="fill:none;stroke:#000000;stroke-width:0.26458332;stroke-miterlimit:4;stroke-dasharray:none;stroke-opacity:1"
       inkscape:connector-curvature="0" />
    <path
       id="path2009"
       d="m 33.808058,268.25962 a 3.0427088,3.0427084 0 0 1 -3.04271,3.04271 3.0427088,3.0427084 0 0 1 -3.042708,-3.04271 3.0427088,3.0427084 0 0 1 3.042708,-3.04271 3.0427088,3.0427084 0 0 1 3.04271,3.04271 z"
       style="fill:none;stroke:#000000;stroke-width:0.26458332;stroke-miterlimit:4;stroke-dasharray:none;stroke-opacity:1"
       inkscape:connector-curvature="0" />
    <path
       id="path2052"
       d="m 36.701479,277.15622 a 3.0427088,3.0427084 0 0 1 -3.04271,3.04271 3.0427088,3.0427084 0 0 1 -3.042708,-3.04271 3.0427088,3.0427084 0 0 1 3.042708,-3.04271 3.0427088,3.0427084 0 0 1 3.04271,3.04271 z"
       style="fill:none;stroke:#000000;stroke-width:0.26458332;stroke-miterlimit:4;stroke-dasharray:none;stroke-opacity:1"
       inkscape:connector-curvature="0" />
    <g
       id="content-0-5"
       transform="matrix(0.59999999,0,0,-0.59999999,-72.165881,675.36141)"
       xml:space="preserve"
       stroke-miterlimit="10.433"
       font-style="normal"
       font-variant="normal"
       font-weight="normal"
       font-stretch="normal"
       font-size-adjust="none"
       letter-spacing="normal"
       word-spacing="normal"
       ns0:text="$\\times$"
       ns0:preamble="C:\\Users\\Daniel\\AppData\\Roaming\\inkscape\\extensions\\default_packages.tex"
       style="font-style:normal;font-variant:normal;font-weight:normal;font-stretch:normal;letter-spacing:normal;word-spacing:normal;text-anchor:start;opacity:1;fill:#ff0000;fill-opacity:1;fill-rule:evenodd;stroke:#000000;stroke-linecap:butt;stroke-linejoin:miter;stroke-miterlimit:10.43299961;stroke-dasharray:none;stroke-dashoffset:0;stroke-opacity:1"><path
         d="m 152.59,660 -1.99,1.97 c -0.12,0.12 -0.14,0.14 -0.22,0.14 -0.1,0 -0.2,-0.09 -0.2,-0.2 0,-0.07 0.02,-0.09 0.13,-0.19 l 1.99,-2 -1.99,-2 c -0.11,-0.11 -0.13,-0.13 -0.13,-0.2 0,-0.11 0.1,-0.2 0.2,-0.2 0.08,0 0.1,0.02 0.22,0.14 l 1.98,1.98 2.07,-2.06 c 0.01,-0.01 0.09,-0.06 0.14,-0.06 0.12,0 0.2,0.09 0.2,0.2 0,0.02 0,0.06 -0.03,0.11 -0.01,0.02 -1.59,1.58 -2.09,2.09 l 1.83,1.82 c 0.04,0.06 0.2,0.18 0.25,0.24 0,0.02 0.04,0.06 0.04,0.13 0,0.11 -0.08,0.2 -0.2,0.2 -0.08,0 -0.11,-0.04 -0.22,-0.15 z"
         font-size-adjust="none"
         font-stretch="normal"
         font-style="normal"
         font-variant="normal"
         font-weight="normal"
         letter-spacing="normal"
         stroke-miterlimit="10.433"
         word-spacing="normal"
         style="font-style:normal;font-variant:normal;font-weight:normal;font-stretch:normal;letter-spacing:normal;word-spacing:normal;text-anchor:start;fill:#ff0000;fill-opacity:1;fill-rule:evenodd;stroke:#000000;stroke-width:0;stroke-linecap:butt;stroke-linejoin:miter;stroke-miterlimit:10.43299961;stroke-dasharray:none;stroke-dashoffset:0;stroke-opacity:1"
         id="path6401-3-6"
         inkscape:connector-curvature="0" /></g>    <g
       id="content-0-54"
       transform="matrix(0.59999999,0,0,-0.59999999,-66.634867,674.11367)"
       xml:space="preserve"
       stroke-miterlimit="10.433"
       font-style="normal"
       font-variant="normal"
       font-weight="normal"
       font-stretch="normal"
       font-size-adjust="none"
       letter-spacing="normal"
       word-spacing="normal"
       ns0:text="$\\times$"
       ns0:preamble="C:\\Users\\Daniel\\AppData\\Roaming\\inkscape\\extensions\\default_packages.tex"
       style="font-style:normal;font-variant:normal;font-weight:normal;font-stretch:normal;letter-spacing:normal;word-spacing:normal;text-anchor:start;opacity:1;fill:#ff0000;fill-opacity:1;fill-rule:evenodd;stroke:#000000;stroke-linecap:butt;stroke-linejoin:miter;stroke-miterlimit:10.43299961;stroke-dasharray:none;stroke-dashoffset:0;stroke-opacity:1"><path
         d="m 152.59,660 -1.99,1.97 c -0.12,0.12 -0.14,0.14 -0.22,0.14 -0.1,0 -0.2,-0.09 -0.2,-0.2 0,-0.07 0.02,-0.09 0.13,-0.19 l 1.99,-2 -1.99,-2 c -0.11,-0.11 -0.13,-0.13 -0.13,-0.2 0,-0.11 0.1,-0.2 0.2,-0.2 0.08,0 0.1,0.02 0.22,0.14 l 1.98,1.98 2.07,-2.06 c 0.01,-0.01 0.09,-0.06 0.14,-0.06 0.12,0 0.2,0.09 0.2,0.2 0,0.02 0,0.06 -0.03,0.11 -0.01,0.02 -1.59,1.58 -2.09,2.09 l 1.83,1.82 c 0.04,0.06 0.2,0.18 0.25,0.24 0,0.02 0.04,0.06 0.04,0.13 0,0.11 -0.08,0.2 -0.2,0.2 -0.08,0 -0.11,-0.04 -0.22,-0.15 z"
         font-size-adjust="none"
         font-stretch="normal"
         font-style="normal"
         font-variant="normal"
         font-weight="normal"
         letter-spacing="normal"
         stroke-miterlimit="10.433"
         word-spacing="normal"
         style="font-style:normal;font-variant:normal;font-weight:normal;font-stretch:normal;letter-spacing:normal;word-spacing:normal;text-anchor:start;fill:#ff0000;fill-opacity:1;fill-rule:evenodd;stroke:#000000;stroke-width:0;stroke-linecap:butt;stroke-linejoin:miter;stroke-miterlimit:10.43299961;stroke-dasharray:none;stroke-dashoffset:0;stroke-opacity:1"
         id="path6401-3-4"
         inkscape:connector-curvature="0" /></g>    <g
       id="content-0-7"
       transform="matrix(0.59999999,0,0,-0.59999999,-66.143912,663.35865)"
       xml:space="preserve"
       stroke-miterlimit="10.433"
       font-style="normal"
       font-variant="normal"
       font-weight="normal"
       font-stretch="normal"
       font-size-adjust="none"
       letter-spacing="normal"
       word-spacing="normal"
       ns0:text="$\\times$"
       ns0:preamble="C:\\Users\\Daniel\\AppData\\Roaming\\inkscape\\extensions\\default_packages.tex"
       style="font-style:normal;font-variant:normal;font-weight:normal;font-stretch:normal;letter-spacing:normal;word-spacing:normal;text-anchor:start;opacity:1;fill:#ff0000;fill-opacity:1;fill-rule:evenodd;stroke:#000000;stroke-linecap:butt;stroke-linejoin:miter;stroke-miterlimit:10.43299961;stroke-dasharray:none;stroke-dashoffset:0;stroke-opacity:1"><path
         d="m 152.59,660 -1.99,1.97 c -0.12,0.12 -0.14,0.14 -0.22,0.14 -0.1,0 -0.2,-0.09 -0.2,-0.2 0,-0.07 0.02,-0.09 0.13,-0.19 l 1.99,-2 -1.99,-2 c -0.11,-0.11 -0.13,-0.13 -0.13,-0.2 0,-0.11 0.1,-0.2 0.2,-0.2 0.08,0 0.1,0.02 0.22,0.14 l 1.98,1.98 2.07,-2.06 c 0.01,-0.01 0.09,-0.06 0.14,-0.06 0.12,0 0.2,0.09 0.2,0.2 0,0.02 0,0.06 -0.03,0.11 -0.01,0.02 -1.59,1.58 -2.09,2.09 l 1.83,1.82 c 0.04,0.06 0.2,0.18 0.25,0.24 0,0.02 0.04,0.06 0.04,0.13 0,0.11 -0.08,0.2 -0.2,0.2 -0.08,0 -0.11,-0.04 -0.22,-0.15 z"
         font-size-adjust="none"
         font-stretch="normal"
         font-style="normal"
         font-variant="normal"
         font-weight="normal"
         letter-spacing="normal"
         stroke-miterlimit="10.433"
         word-spacing="normal"
         style="font-style:normal;font-variant:normal;font-weight:normal;font-stretch:normal;letter-spacing:normal;word-spacing:normal;text-anchor:start;fill:#ff0000;fill-opacity:1;fill-rule:evenodd;stroke:#000000;stroke-width:0;stroke-linecap:butt;stroke-linejoin:miter;stroke-miterlimit:10.43299961;stroke-dasharray:none;stroke-dashoffset:0;stroke-opacity:1"
         id="path6401-3-40"
         inkscape:connector-curvature="0" /></g>    <g
       id="content-0-2"
       transform="matrix(0.59999999,0,0,-0.59999999,-84.551877,669.14221)"
       xml:space="preserve"
       stroke-miterlimit="10.433"
       font-style="normal"
       font-variant="normal"
       font-weight="normal"
       font-stretch="normal"
       font-size-adjust="none"
       letter-spacing="normal"
       word-spacing="normal"
       ns0:text="$\\times$"
       ns0:preamble="C:\\Users\\Daniel\\AppData\\Roaming\\inkscape\\extensions\\default_packages.tex"
       style="font-style:normal;font-variant:normal;font-weight:normal;font-stretch:normal;letter-spacing:normal;word-spacing:normal;text-anchor:start;opacity:1;fill:#ff0000;fill-opacity:1;fill-rule:evenodd;stroke:#000000;stroke-linecap:butt;stroke-linejoin:miter;stroke-miterlimit:10.43299961;stroke-dasharray:none;stroke-dashoffset:0;stroke-opacity:1"><path
         d="m 152.59,660 -1.99,1.97 c -0.12,0.12 -0.14,0.14 -0.22,0.14 -0.1,0 -0.2,-0.09 -0.2,-0.2 0,-0.07 0.02,-0.09 0.13,-0.19 l 1.99,-2 -1.99,-2 c -0.11,-0.11 -0.13,-0.13 -0.13,-0.2 0,-0.11 0.1,-0.2 0.2,-0.2 0.08,0 0.1,0.02 0.22,0.14 l 1.98,1.98 2.07,-2.06 c 0.01,-0.01 0.09,-0.06 0.14,-0.06 0.12,0 0.2,0.09 0.2,0.2 0,0.02 0,0.06 -0.03,0.11 -0.01,0.02 -1.59,1.58 -2.09,2.09 l 1.83,1.82 c 0.04,0.06 0.2,0.18 0.25,0.24 0,0.02 0.04,0.06 0.04,0.13 0,0.11 -0.08,0.2 -0.2,0.2 -0.08,0 -0.11,-0.04 -0.22,-0.15 z"
         font-size-adjust="none"
         font-stretch="normal"
         font-style="normal"
         font-variant="normal"
         font-weight="normal"
         letter-spacing="normal"
         stroke-miterlimit="10.433"
         word-spacing="normal"
         style="font-style:normal;font-variant:normal;font-weight:normal;font-stretch:normal;letter-spacing:normal;word-spacing:normal;text-anchor:start;fill:#ff0000;fill-opacity:1;fill-rule:evenodd;stroke:#000000;stroke-width:0;stroke-linecap:butt;stroke-linejoin:miter;stroke-miterlimit:10.43299961;stroke-dasharray:none;stroke-dashoffset:0;stroke-opacity:1"
         id="path6401-3-65"
         inkscape:connector-curvature="0" /></g>    <text
       xml:space="preserve"
       style="font-style:normal;font-weight:normal;font-size:4.93888903px;line-height:1.25;font-family:sans-serif;letter-spacing:0px;word-spacing:0px;fill:#000000;fill-opacity:1;stroke:none;stroke-width:0.26458332"
       x="10.594424"
       y="298.772"
       id="text6099-8-4"><tspan
         sodipodi:role="line"
         id="tspan6097-4-2"
         x="10.594424"
         y="298.772"
         style="font-style:normal;font-variant:normal;font-weight:normal;font-stretch:normal;font-size:4.93888903px;font-family:LMRoman10;-inkscape-font-specification:LMRoman10;stroke-width:0.26458332">5</tspan></text>
    <text
       xml:space="preserve"
       style="font-style:normal;font-weight:normal;font-size:4.93888903px;line-height:1.25;font-family:sans-serif;letter-spacing:0px;word-spacing:0px;fill:#000000;fill-opacity:1;stroke:none;stroke-width:0.26458332"
       x="23.556995"
       y="298.87222"
       id="text6099-8-4-5"><tspan
         sodipodi:role="line"
         id="tspan6097-4-2-3"
         x="23.556995"
         y="298.87222"
         style="font-style:normal;font-variant:normal;font-weight:normal;font-stretch:normal;font-size:4.93888903px;font-family:LMRoman10;-inkscape-font-specification:LMRoman10;stroke-width:0.26458332">6</tspan></text>
    <text
       xml:space="preserve"
       style="font-style:normal;font-weight:normal;font-size:4.93888903px;line-height:1.25;font-family:sans-serif;letter-spacing:0px;word-spacing:0px;fill:#000000;fill-opacity:1;stroke:none;stroke-width:0.26458332"
       x="33.546196"
       y="292.35754"
       id="text6099-8-4-52"><tspan
         sodipodi:role="line"
         id="tspan6097-4-2-8"
         x="33.546196"
         y="292.35754"
         style="font-style:normal;font-variant:normal;font-weight:normal;font-stretch:normal;font-size:4.93888903px;font-family:LMRoman10;-inkscape-font-specification:LMRoman10;stroke-width:0.26458332">7</tspan></text>
    <text
       xml:space="preserve"
       style="font-style:normal;font-weight:normal;font-size:4.93888903px;line-height:1.25;font-family:sans-serif;letter-spacing:0px;word-spacing:0px;fill:#000000;fill-opacity:1;stroke:none;stroke-width:0.26458332"
       x="37.789097"
       y="278.89389"
       id="text6099-8-4-8"><tspan
         sodipodi:role="line"
         id="tspan6097-4-2-30"
         x="37.789097"
         y="278.89389"
         style="font-style:normal;font-variant:normal;font-weight:normal;font-stretch:normal;font-size:4.93888903px;font-family:LMRoman10;-inkscape-font-specification:LMRoman10;stroke-width:0.26458332">8</tspan></text>
    <text
       xml:space="preserve"
       style="font-style:normal;font-weight:normal;font-size:4.93888903px;line-height:1.25;font-family:sans-serif;letter-spacing:0px;word-spacing:0px;fill:#000000;fill-opacity:1;stroke:none;stroke-width:0.26458332"
       x="34.615273"
       y="266.93356"
       id="text6099-8-4-6"><tspan
         sodipodi:role="line"
         id="tspan6097-4-2-2"
         x="34.615273"
         y="266.93356"
         style="font-style:normal;font-variant:normal;font-weight:normal;font-stretch:normal;font-size:4.93888903px;font-family:LMRoman10;-inkscape-font-specification:LMRoman10;stroke-width:0.26458332">9</tspan></text>
    <text
       xml:space="preserve"
       style="font-style:normal;font-weight:normal;font-size:4.93888903px;line-height:1.25;font-family:sans-serif;letter-spacing:0px;word-spacing:0px;fill:#000000;fill-opacity:1;stroke:none;stroke-width:0.26458332"
       x="26.359966"
       y="261.06369"
       id="text6099-8-4-1"><tspan
         sodipodi:role="line"
         id="tspan6097-4-2-5"
         x="26.359966"
         y="261.06369"
         style="font-style:normal;font-variant:normal;font-weight:normal;font-stretch:normal;font-size:4.93888903px;font-family:LMRoman10;-inkscape-font-specification:LMRoman10;stroke-width:0.26458332">10</tspan></text>
    <text
       xml:space="preserve"
       style="font-style:oblique;font-variant:normal;font-weight:normal;font-stretch:normal;font-size:4.23333311px;line-height:2.64583325px;font-family:LMSans9;-inkscape-font-specification:'LMSans9, Oblique';font-variant-ligatures:normal;font-variant-caps:normal;font-variant-numeric:normal;font-feature-settings:normal;text-align:start;letter-spacing:0px;word-spacing:0px;writing-mode:lr-tb;text-anchor:start;fill:#000000;fill-opacity:1;stroke:none;stroke-width:0.26458332px;stroke-linecap:butt;stroke-linejoin:miter;stroke-opacity:1"
       x="11.161539"
       y="264.23251"
       id="text4525"><tspan
         sodipodi:role="line"
         id="tspan4645"
         x="11.161539"
         y="264.23251">W</tspan></text>
    <text
       xml:space="preserve"
       style="font-style:oblique;font-variant:normal;font-weight:normal;font-stretch:normal;font-size:4.23333311px;line-height:2.64583325px;font-family:LMSans9;-inkscape-font-specification:'LMSans9, Oblique';font-variant-ligatures:normal;font-variant-caps:normal;font-variant-numeric:normal;font-feature-settings:normal;text-align:start;letter-spacing:0px;word-spacing:0px;writing-mode:lr-tb;text-anchor:start;fill:#000000;fill-opacity:1;stroke:none;stroke-width:0.26458332px;stroke-linecap:butt;stroke-linejoin:miter;stroke-opacity:1"
       x="3.5935574"
       y="269.72992"
       id="text4525-7"><tspan
         style="stroke-width:0.26458332px"
         sodipodi:role="line"
         id="tspan4645-5"
         x="3.5935574"
         y="269.72992">W</tspan></text>
    <text
       xml:space="preserve"
       style="font-style:oblique;font-variant:normal;font-weight:normal;font-stretch:normal;font-size:4.23333311px;line-height:2.64583325px;font-family:LMSans9;-inkscape-font-specification:'LMSans9, Oblique';font-variant-ligatures:normal;font-variant-caps:normal;font-variant-numeric:normal;font-feature-settings:normal;text-align:start;letter-spacing:0px;word-spacing:0px;writing-mode:lr-tb;text-anchor:start;fill:#000000;fill-opacity:1;stroke:none;stroke-width:0.26458332px;stroke-linecap:butt;stroke-linejoin:miter;stroke-opacity:1"
       x="0.70111549"
       y="278.62683"
       id="text4525-8"><tspan
         style="stroke-width:0.26458332px"
         sodipodi:role="line"
         id="tspan4645-0"
         x="0.70111549"
         y="278.62683">W</tspan></text>
    <text
       xml:space="preserve"
       style="font-style:oblique;font-variant:normal;font-weight:normal;font-stretch:normal;font-size:4.23333311px;line-height:2.64583325px;font-family:LMSans9;-inkscape-font-specification:'LMSans9, Oblique';font-variant-ligatures:normal;font-variant-caps:normal;font-variant-numeric:normal;font-feature-settings:normal;text-align:start;letter-spacing:0px;word-spacing:0px;writing-mode:lr-tb;text-anchor:start;fill:#000000;fill-opacity:1;stroke:none;stroke-width:0.26458332px;stroke-linecap:butt;stroke-linejoin:miter;stroke-opacity:1"
       x="28.686783"
       y="269.72858"
       id="text4525-0"><tspan
         style="stroke-width:0.26458332px"
         sodipodi:role="line"
         id="tspan4545"
         x="28.686783"
         y="269.72858">Y</tspan></text>
    <text
       xml:space="preserve"
       style="font-style:oblique;font-variant:normal;font-weight:normal;font-stretch:normal;font-size:4.23333311px;line-height:2.64583325px;font-family:LMSans9;-inkscape-font-specification:'LMSans9, Oblique';font-variant-ligatures:normal;font-variant-caps:normal;font-variant-numeric:normal;font-feature-settings:normal;text-align:start;letter-spacing:0px;word-spacing:0px;writing-mode:lr-tb;text-anchor:start;fill:#000000;fill-opacity:1;stroke:none;stroke-width:0.26458332px;stroke-linecap:butt;stroke-linejoin:miter;stroke-opacity:1"
       x="31.580204"
       y="278.62518"
       id="text4525-0-8"><tspan
         style="stroke-width:0.26458332px"
         sodipodi:role="line"
         id="tspan4545-8"
         x="31.580204"
         y="278.62518">Y</tspan></text>
    <text
       xml:space="preserve"
       style="font-style:oblique;font-variant:normal;font-weight:normal;font-stretch:normal;font-size:4.23333311px;line-height:2.64583325px;font-family:LMSans9;-inkscape-font-specification:'LMSans9, Oblique';font-variant-ligatures:normal;font-variant-caps:normal;font-variant-numeric:normal;font-feature-settings:normal;text-align:start;letter-spacing:0px;word-spacing:0px;writing-mode:lr-tb;text-anchor:start;fill:#000000;fill-opacity:1;stroke:none;stroke-width:0.26458332px;stroke-linecap:butt;stroke-linejoin:miter;stroke-opacity:1"
       x="21.556339"
       y="264.23199"
       id="text4525-0-2"><tspan
         style="stroke-width:0.26458332px"
         sodipodi:role="line"
         id="tspan4581"
         x="21.556339"
         y="264.23199">Z</tspan></text>
    <text
       xml:space="preserve"
       style="font-style:oblique;font-variant:normal;font-weight:normal;font-stretch:normal;font-size:4.23333311px;line-height:2.64583325px;font-family:LMSans9;-inkscape-font-specification:'LMSans9, Oblique';font-variant-ligatures:normal;font-variant-caps:normal;font-variant-numeric:normal;font-feature-settings:normal;text-align:start;letter-spacing:0px;word-spacing:0px;writing-mode:lr-tb;text-anchor:start;fill:#000000;fill-opacity:1;stroke:none;stroke-width:0.26458332px;stroke-linecap:butt;stroke-linejoin:miter;stroke-opacity:1"
       x="4.6018519"
       y="287.52197"
       id="text4525-4"><tspan
         sodipodi:role="line"
         id="tspan4523"
         x="4.6018519"
         y="287.52197"
         style="font-style:oblique;font-variant:normal;font-weight:normal;font-stretch:normal;font-size:4.23333311px;font-family:LMSans9;-inkscape-font-specification:'LMSans9, Oblique';font-variant-ligatures:normal;font-variant-caps:normal;font-variant-numeric:normal;font-feature-settings:normal;text-align:start;writing-mode:lr-tb;text-anchor:start;stroke-width:0.26458332px">X</tspan></text>
    <text
       xml:space="preserve"
       style="font-style:oblique;font-variant:normal;font-weight:normal;font-stretch:normal;font-size:4.23333311px;line-height:2.64583325px;font-family:LMSans9;-inkscape-font-specification:'LMSans9, Oblique';font-variant-ligatures:normal;font-variant-caps:normal;font-variant-numeric:normal;font-feature-settings:normal;text-align:start;letter-spacing:0px;word-spacing:0px;writing-mode:lr-tb;text-anchor:start;fill:#000000;fill-opacity:1;stroke:none;stroke-width:0.26458332px;stroke-linecap:butt;stroke-linejoin:miter;stroke-opacity:1"
       x="12.168178"
       y="293.02274"
       id="text4525-4-0"><tspan
         sodipodi:role="line"
         id="tspan4523-2"
         x="12.168178"
         y="293.02274"
         style="font-style:oblique;font-variant:normal;font-weight:normal;font-stretch:normal;font-size:4.23333311px;font-family:LMSans9;-inkscape-font-specification:'LMSans9, Oblique';font-variant-ligatures:normal;font-variant-caps:normal;font-variant-numeric:normal;font-feature-settings:normal;text-align:start;writing-mode:lr-tb;text-anchor:start;stroke-width:0.26458332px">X</tspan></text>
    <text
       xml:space="preserve"
       style="font-style:oblique;font-variant:normal;font-weight:normal;font-stretch:normal;font-size:4.23333311px;line-height:2.64583325px;font-family:LMSans9;-inkscape-font-specification:'LMSans9, Oblique';font-variant-ligatures:normal;font-variant-caps:normal;font-variant-numeric:normal;font-feature-settings:normal;text-align:start;letter-spacing:0px;word-spacing:0px;writing-mode:lr-tb;text-anchor:start;fill:#000000;fill-opacity:1;stroke:none;stroke-width:0.26458332px;stroke-linecap:butt;stroke-linejoin:miter;stroke-opacity:1"
       x="21.522463"
       y="293.01837"
       id="text4525-4-2"><tspan
         sodipodi:role="line"
         id="tspan4523-0"
         x="21.522463"
         y="293.01837"
         style="font-style:oblique;font-variant:normal;font-weight:normal;font-stretch:normal;font-size:4.23333311px;font-family:LMSans9;-inkscape-font-specification:'LMSans9, Oblique';font-variant-ligatures:normal;font-variant-caps:normal;font-variant-numeric:normal;font-feature-settings:normal;text-align:start;writing-mode:lr-tb;text-anchor:start;stroke-width:0.26458332px">X</tspan></text>
    <text
       xml:space="preserve"
       style="font-style:oblique;font-variant:normal;font-weight:normal;font-stretch:normal;font-size:4.23333311px;line-height:2.64583325px;font-family:LMSans9;-inkscape-font-specification:'LMSans9, Oblique';font-variant-ligatures:normal;font-variant-caps:normal;font-variant-numeric:normal;font-feature-settings:normal;text-align:start;letter-spacing:0px;word-spacing:0px;writing-mode:lr-tb;text-anchor:start;fill:#000000;fill-opacity:1;stroke:none;stroke-width:0.26458332px;stroke-linecap:butt;stroke-linejoin:miter;stroke-opacity:1"
       x="29.091061"
       y="287.52179"
       id="text4525-4-7"><tspan
         sodipodi:role="line"
         id="tspan4523-23"
         x="29.091061"
         y="287.52179"
         style="font-style:oblique;font-variant:normal;font-weight:normal;font-stretch:normal;font-size:4.23333311px;font-family:LMSans9;-inkscape-font-specification:'LMSans9, Oblique';font-variant-ligatures:normal;font-variant-caps:normal;font-variant-numeric:normal;font-feature-settings:normal;text-align:start;writing-mode:lr-tb;text-anchor:start;stroke-width:0.26458332px">X</tspan></text>
  </g>
</svg>
