<?xml version="1.0" encoding="UTF-8" standalone="no"?>
<!-- Created with Inkscape (http://www.inkscape.org/) -->

<svg
   xmlns:ns0="http://www.iki.fi/pav/software/textext/"
   xmlns:dc="http://purl.org/dc/elements/1.1/"
   xmlns:cc="http://creativecommons.org/ns#"
   xmlns:rdf="http://www.w3.org/1999/02/22-rdf-syntax-ns#"
   xmlns:svg="http://www.w3.org/2000/svg"
   xmlns="http://www.w3.org/2000/svg"
   xmlns:sodipodi="http://sodipodi.sourceforge.net/DTD/sodipodi-0.dtd"
   xmlns:inkscape="http://www.inkscape.org/namespaces/inkscape"
   id="svg8"
   version="1.1"
   viewBox="0 0 33.82234 34.312914"
   height="1.3509021in"
   width="1.3315881in"
   inkscape:version="0.92.1 r15371"
   sodipodi:docname="ordering-ex1-original.svg">
  <sodipodi:namedview
     inkscape:guide-bbox="true"
     showguides="true"
     inkscape:window-maximized="1"
     inkscape:window-y="-8"
     inkscape:window-x="-8"
     inkscape:window-height="1057"
     inkscape:window-width="1868"
     units="in"
     showgrid="false"
     inkscape:current-layer="layer1"
     inkscape:document-units="mm"
     inkscape:cy="62.732685"
     inkscape:cx="33.694768"
     inkscape:zoom="3.959798"
     inkscape:pageshadow="2"
     inkscape:pageopacity="0.0"
     borderopacity="1.0"
     bordercolor="#666666"
     pagecolor="#ffffff"
     id="base"
     fit-margin-top="0"
     fit-margin-left="0"
     fit-margin-right="0"
     fit-margin-bottom="0" />
  <defs
     id="defs2">
    <inkscape:path-effect
       effect="bspline"
       id="path-effect6178"
       is_visible="true"
       weight="33.333333"
       steps="2"
       helper_size="0"
       apply_no_weight="true"
       apply_with_weight="true"
       only_selected="false" />
  </defs>
  <metadata
     id="metadata5">
    <rdf:RDF>
      <cc:Work
         rdf:about="">
        <dc:format>image/svg+xml</dc:format>
        <dc:type
           rdf:resource="http://purl.org/dc/dcmitype/StillImage" />
        <dc:title></dc:title>
      </cc:Work>
    </rdf:RDF>
  </metadata>
  <g
     inkscape:label="Layer 1"
     inkscape:groupmode="layer"
     id="layer1"
     transform="translate(-2.3233819,-260.34147)">
    <path
       style="fill:none;fill-rule:evenodd;stroke:#c2c2c2;stroke-width:0.5291667;stroke-linecap:butt;stroke-linejoin:miter;stroke-miterlimit:4;stroke-dasharray:none;stroke-opacity:1"
       d="m 22.731304,265.87541 c 2.234731,0.46877 4.469261,0.9375 6.03535,0.63235 1.56609,-0.30515 2.463868,-1.38406 2.40862,-2.5021 -0.05525,-1.11805 -1.063187,-2.27561 -2.695598,-2.38494 -1.632411,-0.10934 -3.889587,0.82963 -6.147106,1.76874"
       id="path6176"
       inkscape:connector-curvature="0"
       inkscape:path-effect="#path-effect6178"
       inkscape:original-d="m 22.731304,265.87541 c 2.234796,0.46846 4.469326,0.93719 6.703591,1.40619 0.897878,-1.07897 1.795653,-2.15788 2.693081,-3.23642 -1.007671,-1.15781 -2.015608,-2.31537 -3.02381,-3.47266 -2.256958,0.93872 -4.514134,1.87769 -6.771596,2.81694"
       sodipodi:nodetypes="ccccc" />
    <path
       style="fill:none;stroke:#c2c2c2;stroke-width:0.52899998;stroke-linecap:butt;stroke-linejoin:miter;stroke-miterlimit:4;stroke-dasharray:none;stroke-opacity:1"
       d="m 22.169463,266.92984 8.720999,8.99223"
       id="path5961-7"
       inkscape:connector-curvature="0"
       sodipodi:nodetypes="cc" />
    <path
       style="fill:none;stroke:#c2c2c2;stroke-width:0.5291667;stroke-linecap:butt;stroke-linejoin:miter;stroke-miterlimit:4;stroke-dasharray:none;stroke-opacity:1"
       d="m 19.763379,268.05794 v 20.37097"
       id="path5959"
       inkscape:connector-curvature="0" />
    <path
       style="fill:none;stroke:#c2c2c2;stroke-width:0.5291667;stroke-linecap:butt;stroke-linejoin:miter;stroke-miterlimit:4;stroke-dasharray:none;stroke-opacity:1"
       d="m 17.35407,266.96379 -8.7209997,8.99223"
       id="path5961"
       inkscape:connector-curvature="0"
       sodipodi:nodetypes="cc" />
    <text
       id="text6099"
       y="263.63077"
       x="13.859534"
       style="font-style:normal;font-weight:normal;font-size:4.93888903px;line-height:1.25;font-family:sans-serif;letter-spacing:0px;word-spacing:0px;fill:#000000;fill-opacity:1;stroke:none;stroke-width:0.26458332"
       xml:space="preserve"><tspan
         style="font-style:normal;font-variant:normal;font-weight:normal;font-stretch:normal;font-size:4.93888903px;font-family:LMRoman10;-inkscape-font-specification:LMRoman10;stroke-width:0.26458332"
         y="263.63077"
         x="13.859534"
         id="tspan6097"
         sodipodi:role="line">1</tspan></text>
    <path
       id="path7086"
       d="m 36.013429,278.27063 a 3.0427088,3.0427084 0 0 1 -3.04271,3.04271 3.0427088,3.0427084 0 0 1 -3.042708,-3.04271 3.0427088,3.0427084 0 0 1 3.042708,-3.04271 3.0427088,3.0427084 0 0 1 3.04271,3.04271 z"
       style="fill:none;stroke:#000000;stroke-width:0.26458332;stroke-miterlimit:4;stroke-dasharray:none;stroke-opacity:1"
       inkscape:connector-curvature="0" />
    <path
       id="path4277"
       d="m 22.803303,291.47938 a 3.0427088,3.0427084 0 0 1 -3.04271,3.04271 3.0427088,3.0427084 0 0 1 -3.042708,-3.04271 3.0427088,3.0427084 0 0 1 3.042708,-3.04271 3.0427088,3.0427084 0 0 1 3.04271,3.04271 z"
       style="fill:none;stroke:#000000;stroke-width:0.26458332;stroke-miterlimit:4;stroke-dasharray:none;stroke-opacity:1"
       inkscape:connector-curvature="0" />
    <path
       id="path8834"
       d="m 9.5960333,278.26784 a 3.0427088,3.0427084 0 0 1 -3.04271,3.04271 3.0427088,3.0427084 0 0 1 -3.042708,-3.04271 3.0427088,3.0427084 0 0 1 3.042708,-3.04271 3.0427088,3.0427084 0 0 1 3.04271,3.04271 z"
       style="fill:none;stroke:#000000;stroke-width:0.26458332;stroke-miterlimit:4;stroke-dasharray:none;stroke-opacity:1"
       inkscape:connector-curvature="0" />
    <path
       id="path7114"
       d="m 22.806088,265.06195 a 3.0427088,3.0427084 0 0 1 -3.04271,3.04271 3.0427088,3.0427084 0 0 1 -3.042708,-3.04271 3.0427088,3.0427084 0 0 1 3.042708,-3.04271 3.0427088,3.0427084 0 0 1 3.04271,3.04271 z"
       style="fill:none;stroke:#000000;stroke-width:0.26458332;stroke-miterlimit:4;stroke-dasharray:none;stroke-opacity:1"
       inkscape:connector-curvature="0" />
    <path
       id="path3061"
       d="m 36.013429,278.27063 a 3.0427088,3.0427084 0 0 1 -3.04271,3.04271 3.0427088,3.0427084 0 0 1 -3.042708,-3.04271 3.0427088,3.0427084 0 0 1 3.042708,-3.04271 3.0427088,3.0427084 0 0 1 3.04271,3.04271 z"
       style="fill:none;stroke:#000000;stroke-width:0.26458332;stroke-miterlimit:4;stroke-dasharray:none;stroke-opacity:1"
       inkscape:connector-curvature="0" />
    <text
       id="text6099-1"
       y="284.39966"
       x="2.0764375"
       style="font-style:normal;font-weight:normal;font-size:4.93888903px;line-height:1.25;font-family:sans-serif;letter-spacing:0px;word-spacing:0px;fill:#000000;fill-opacity:1;stroke:none;stroke-width:0.26458332"
       xml:space="preserve"><tspan
         style="font-style:normal;font-variant:normal;font-weight:normal;font-stretch:normal;font-size:4.93888903px;font-family:LMRoman10;-inkscape-font-specification:LMRoman10;stroke-width:0.26458332"
         y="284.39966"
         x="2.0764375"
         id="tspan6097-34"
         sodipodi:role="line">2</tspan></text>
    <text
       id="text6099-5"
       y="291.08508"
       x="23.313974"
       style="font-style:normal;font-weight:normal;font-size:4.93888903px;line-height:1.25;font-family:sans-serif;letter-spacing:0px;word-spacing:0px;fill:#000000;fill-opacity:1;stroke:none;stroke-width:0.26458332"
       xml:space="preserve"><tspan
         style="font-style:normal;font-variant:normal;font-weight:normal;font-stretch:normal;font-size:4.93888903px;font-family:LMRoman10;-inkscape-font-specification:LMRoman10;stroke-width:0.26458332"
         y="291.08508"
         x="23.313974"
         id="tspan6097-1"
         sodipodi:role="line">3</tspan></text>
    <text
       id="text6099-8"
       y="274.26514"
       x="32.857872"
       style="font-style:normal;font-weight:normal;font-size:4.93888903px;line-height:1.25;font-family:sans-serif;letter-spacing:0px;word-spacing:0px;fill:#000000;fill-opacity:1;stroke:none;stroke-width:0.26458332"
       xml:space="preserve"><tspan
         style="font-style:normal;font-variant:normal;font-weight:normal;font-stretch:normal;font-size:4.93888903px;font-family:LMRoman10;-inkscape-font-specification:LMRoman10;stroke-width:0.26458332"
         y="274.26514"
         x="32.857872"
         id="tspan6097-4"
         sodipodi:role="line">4</tspan></text>
    <g
       style="font-style:normal;font-variant:normal;font-weight:normal;font-stretch:normal;letter-spacing:normal;word-spacing:normal;text-anchor:start;opacity:1;fill:#ff0000;fill-opacity:1;fill-rule:evenodd;stroke:#000000;stroke-linecap:butt;stroke-linejoin:miter;stroke-miterlimit:10.43299961;stroke-dasharray:none;stroke-dashoffset:0;stroke-opacity:1"
       ns0:preamble="C:\\Users\\Daniel\\AppData\\Roaming\\inkscape\\extensions\\default_packages.tex"
       ns0:text="$\\times$"
       word-spacing="normal"
       letter-spacing="normal"
       font-size-adjust="none"
       font-stretch="normal"
       font-weight="normal"
       font-variant="normal"
       font-style="normal"
       stroke-miterlimit="10.433"
       xml:space="preserve"
       transform="matrix(0.59999999,0,0,-0.59999999,-71.787619,674.07242)"
       id="content-0"><path
         inkscape:connector-curvature="0"
         id="path6401-3"
         style="font-style:normal;font-variant:normal;font-weight:normal;font-stretch:normal;letter-spacing:normal;word-spacing:normal;text-anchor:start;fill:#ff0000;fill-opacity:1;fill-rule:evenodd;stroke:#000000;stroke-width:0;stroke-linecap:butt;stroke-linejoin:miter;stroke-miterlimit:10.43299961;stroke-dasharray:none;stroke-dashoffset:0;stroke-opacity:1"
         word-spacing="normal"
         stroke-miterlimit="10.433"
         letter-spacing="normal"
         font-weight="normal"
         font-variant="normal"
         font-style="normal"
         font-stretch="normal"
         font-size-adjust="none"
         d="m 152.59,660 -1.99,1.97 c -0.12,0.12 -0.14,0.14 -0.22,0.14 -0.1,0 -0.2,-0.09 -0.2,-0.2 0,-0.07 0.02,-0.09 0.13,-0.19 l 1.99,-2 -1.99,-2 c -0.11,-0.11 -0.13,-0.13 -0.13,-0.2 0,-0.11 0.1,-0.2 0.2,-0.2 0.08,0 0.1,0.02 0.22,0.14 l 1.98,1.98 2.07,-2.06 c 0.01,-0.01 0.09,-0.06 0.14,-0.06 0.12,0 0.2,0.09 0.2,0.2 0,0.02 0,0.06 -0.03,0.11 -0.01,0.02 -1.59,1.58 -2.09,2.09 l 1.83,1.82 c 0.04,0.06 0.2,0.18 0.25,0.24 0,0.02 0.04,0.06 0.04,0.13 0,0.11 -0.08,0.2 -0.2,0.2 -0.08,0 -0.11,-0.04 -0.22,-0.15 z" /></g>    <g
       style="font-style:normal;font-variant:normal;font-weight:normal;font-stretch:normal;letter-spacing:normal;word-spacing:normal;text-anchor:start;opacity:1;fill:#ff0000;fill-opacity:1;fill-rule:evenodd;stroke:#000000;stroke-linecap:butt;stroke-linejoin:miter;stroke-miterlimit:10.43299961;stroke-dasharray:none;stroke-dashoffset:0;stroke-opacity:1"
       ns0:preamble="C:\\Users\\Daniel\\AppData\\Roaming\\inkscape\\extensions\\default_packages.tex"
       ns0:text="$\\times$"
       word-spacing="normal"
       letter-spacing="normal"
       font-size-adjust="none"
       font-stretch="normal"
       font-weight="normal"
       font-variant="normal"
       font-style="normal"
       stroke-miterlimit="10.433"
       xml:space="preserve"
       transform="matrix(0.59999999,0,0,-0.59999999,-65.117569,667.15936)"
       id="content-0-3"><path
         inkscape:connector-curvature="0"
         id="path6401-3-9"
         style="font-style:normal;font-variant:normal;font-weight:normal;font-stretch:normal;letter-spacing:normal;word-spacing:normal;text-anchor:start;fill:#ff0000;fill-opacity:1;fill-rule:evenodd;stroke:#000000;stroke-width:0;stroke-linecap:butt;stroke-linejoin:miter;stroke-miterlimit:10.43299961;stroke-dasharray:none;stroke-dashoffset:0;stroke-opacity:1"
         word-spacing="normal"
         stroke-miterlimit="10.433"
         letter-spacing="normal"
         font-weight="normal"
         font-variant="normal"
         font-style="normal"
         font-stretch="normal"
         font-size-adjust="none"
         d="m 152.95229,659.75279 0.0347,2.79999 c 0.003,0.16971 0.004,0.19793 -0.0522,0.25551 -0.0704,0.0708 -0.20365,0.0815 -0.28279,0.005 -0.049,-0.0498 -0.0501,-0.0773 -0.0468,-0.22536 l -0.0563,-2.8208 -2.82106,0.0422 c -0.15551,0.002 -0.18371,0.003 -0.23419,-0.0455 -0.0793,-0.0762 -0.0748,-0.21076 -0.005,-0.28278 0.0551,-0.058 0.0828,-0.0598 0.25349,-0.0611 l 2.7997,-0.0488 -0.0439,-2.92004 c 0.002,-0.0163 0.0194,-0.10645 0.0541,-0.1424 0.0836,-0.0862 0.20367,-0.0815 0.28275,-0.005 0.0166,0.0126 0.0429,0.042 0.0587,0.0977 0.0114,0.0191 0.032,2.24132 0.0516,2.95524 l 2.58043,-0.0521 c 0.071,0.0129 0.26834,-0.0194 0.34629,-0.0131 0.0165,0.0126 0.071,0.0129 0.12122,0.0618 0.0793,0.0762 0.0881,0.19657 0.005,0.28278 -0.0551,0.058 -0.10526,0.0511 -0.26067,0.0541 z" /></g>    <path
       id="path4513"
       d="m 34.145461,279.7417 -0.91016,-1.54515 1.354657,-1.39699 h -0.444497 l -1.037159,1.10066 -0.592662,-1.10066 h -0.465663 l 0.804327,1.39699 -1.502822,1.54515 h 0.444496 l 1.185325,-1.29115 0.677328,1.29115 z"
       style="fill:#000000;fill-opacity:1;fill-rule:nonzero;stroke:none;stroke-width:0.26458332"
       inkscape:connector-curvature="0" />
    <path
       id="path4526"
       d="m 20.93812,266.53302 -0.91016,-1.54515 1.354657,-1.39699 H 20.93812 l -1.037159,1.10066 -0.592662,-1.10066 h -0.465663 l 0.804327,1.39699 -1.502822,1.54515 h 0.444497 l 1.185324,-1.29115 0.677329,1.29115 z"
       style="fill:#000000;fill-opacity:1;fill-rule:nonzero;stroke:none;stroke-width:0.26458332"
       inkscape:connector-curvature="0" />
    <path
       id="path4539"
       d="m 20.935336,292.95045 -0.91016,-1.54515 1.354656,-1.39699 h -0.444496 l -1.037159,1.10066 -0.592663,-1.10066 h -0.465663 l 0.804328,1.39699 -1.502823,1.54515 h 0.444497 l 1.185325,-1.29115 0.677328,1.29115 z"
       style="fill:#000000;fill-opacity:1;fill-rule:nonzero;stroke:none;stroke-width:0.26458332"
       inkscape:connector-curvature="0" />
    <path
       id="path4552"
       d="m 7.7280658,279.73891 -0.91016,-1.54515 1.3546565,-1.39699 H 7.7280658 l -1.0371591,1.10066 -0.5926623,-1.10066 H 5.6325812 l 0.8043274,1.39699 -1.5028222,1.54515 h 0.4444967 l 1.1853246,-1.29115 0.6773283,1.29115 z"
       style="fill:#000000;fill-opacity:1;fill-rule:nonzero;stroke:none;stroke-width:0.26458332"
       inkscape:connector-curvature="0" />
  </g>
</svg>
