<svg width="43.033mm" height="81.393mm" version="1.1" viewBox="0 0 152.47781 288.39874" xmlns="http://www.w3.org/2000/svg" xmlns:ns0="http://www.iki.fi/pav/software/textext/">
<defs>
<marker id="Arrow2Mend" overflow="visible" orient="auto">
<path transform="scale(-.6)" d="m8.7186 4.0337-10.926-4.0177 10.926-4.0177c-1.7455 2.3721-1.7354 5.6175-6e-7 8.0354z" fill-rule="evenodd" stroke="#000" stroke-linejoin="round" stroke-width=".625"/>
</marker>
<marker id="a" overflow="visible" orient="auto">
<path transform="scale(-.6)" d="m8.7186 4.0337-10.926-4.0177 10.926-4.0177c-1.7455 2.3721-1.7354 5.6175-6e-7 8.0354z" fill-rule="evenodd" stroke="#000" stroke-linejoin="round" stroke-width=".625"/>
</marker>
<marker id="c" overflow="visible" orient="auto">
<path transform="scale(-.6)" d="m8.7186 4.0337-10.926-4.0177 10.926-4.0177c-1.7455 2.3721-1.7354 5.6175-6e-7 8.0354z" fill-rule="evenodd" stroke="#000" stroke-linejoin="round" stroke-width=".625"/>
</marker>
<marker id="b" overflow="visible" orient="auto">
<path transform="scale(-.6)" d="m8.7186 4.0337-10.926-4.0177 10.926-4.0177c-1.7455 2.3721-1.7354 5.6175-6e-7 8.0354z" fill-rule="evenodd" stroke="#000" stroke-linejoin="round" stroke-width=".625"/>
</marker>
</defs>
<g transform="translate(-42.041 -28.936)" stroke="#000">
<g transform="matrix(5.8479 0 0 -5.8479 -776.37 4221.5)" fill-rule="evenodd" stroke-miterlimit="10.433" stroke-width="0" ns0:preamble="C:\\Users\\Daniel\\AppData\\Roaming\\inkscape\\extensions\\default_packages.tex" ns0:text="\\faRefresh" xml:space="preserve"><path d="m157.12 709.9v0.02l-0.01 0.01v0.02l-0.01 0.01v0.02l-0.01 0.01-0.01 0.01v0.01h-0.01v0.01l-0.01 0.01h-0.01v0.01h-0.01l-0.01 0.01h-0.01v0.01h-0.02l-0.01 0.01h-0.03l-0.01 0.01h-1.08c-0.08 0-0.14-0.05-0.17-0.13-0.09-0.22-0.16-0.43-0.29-0.65-0.51-0.84-1.43-1.36-2.42-1.36-0.72 0-1.43 0.28-1.95 0.77l0.77 0.76c0.07 0.07 0.1 0.16 0.1 0.25 0 0.2-0.15 0.36-0.35 0.36h-2.49c-0.2 0-0.36-0.16-0.36-0.36v-2.49c0-0.19 0.16-0.35 0.36-0.35 0.09 0 0.18 0.04 0.25 0.11l0.72 0.71c0.79-0.74 1.83-1.17 2.92-1.17 2.05 0 3.69 1.36 4.16 3.33 0.01 0.01 0 0.03 0 0.04z"/><path d="m157.26 714.33v0.03l-0.01 0.02v0.04l-0.01 0.01v0.02l-0.01 0.02-0.01 0.01v0.02l-0.01 0.01-0.01 0.02-0.01 0.01-0.01 0.02-0.01 0.01-0.02 0.01-0.01 0.01-0.01 0.01-0.02 0.01-0.01 0.01-0.01 0.01-0.02 0.01-0.01 0.01-0.02 0.01h-0.02l-0.01 0.01h-0.02l-0.02 0.01h-0.07c-0.09 0-0.18-0.03-0.25-0.1l-0.72-0.72c-0.79 0.75-1.85 1.18-2.94 1.18-2.05 0-3.7-1.37-4.18-3.33v-0.05c0-0.08 0.08-0.16 0.18-0.16h1.11c0.08 0 0.14 0.04 0.17 0.12 0.09 0.21 0.16 0.43 0.29 0.65 0.51 0.85 1.44 1.35 2.43 1.35 0.72 0 1.41-0.28 1.94-0.76l-0.77-0.77c-0.07-0.07-0.1-0.16-0.1-0.25 0-0.19 0.15-0.34 0.35-0.34h2.49c0.2 0 0.36 0.15 0.36 0.34z"/></g>
<rect x="43.541" y="30.436" width="149.48" height="219.02" fill="none" stroke-width="3"/>
<g transform="translate(-244.58 -85.714)">
<g transform="matrix(5.8479 0 0 -5.8479 -531.79 4437.6)" fill-rule="evenodd" stroke-miterlimit="10.433" stroke-width="0" ns0:preamble="C:\\Users\\Daniel\\AppData\\Roaming\\inkscape\\extensions\\default_packages.tex" ns0:text="\\faRefresh" xml:space="preserve"><path d="m157.12 709.9v0.02l-0.01 0.01v0.02l-0.01 0.01v0.02l-0.01 0.01-0.01 0.01v0.01h-0.01v0.01l-0.01 0.01h-0.01v0.01h-0.01l-0.01 0.01h-0.01v0.01h-0.02l-0.01 0.01h-0.03l-0.01 0.01h-1.08c-0.08 0-0.14-0.05-0.17-0.13-0.09-0.22-0.16-0.43-0.29-0.65-0.51-0.84-1.43-1.36-2.42-1.36-0.72 0-1.43 0.28-1.95 0.77l0.77 0.76c0.07 0.07 0.1 0.16 0.1 0.25 0 0.2-0.15 0.36-0.35 0.36h-2.49c-0.2 0-0.36-0.16-0.36-0.36v-2.49c0-0.19 0.16-0.35 0.36-0.35 0.09 0 0.18 0.04 0.25 0.11l0.72 0.71c0.79-0.74 1.83-1.17 2.92-1.17 2.05 0 3.69 1.36 4.16 3.33 0.01 0.01 0 0.03 0 0.04z"/><path d="m157.26 714.33v0.03l-0.01 0.02v0.04l-0.01 0.01v0.02l-0.01 0.02-0.01 0.01v0.02l-0.01 0.01-0.01 0.02-0.01 0.01-0.01 0.02-0.01 0.01-0.02 0.01-0.01 0.01-0.01 0.01-0.02 0.01-0.01 0.01-0.01 0.01-0.02 0.01-0.01 0.01-0.02 0.01h-0.02l-0.01 0.01h-0.02l-0.02 0.01h-0.07c-0.09 0-0.18-0.03-0.25-0.1l-0.72-0.72c-0.79 0.75-1.85 1.18-2.94 1.18-2.05 0-3.7-1.37-4.18-3.33v-0.05c0-0.08 0.08-0.16 0.18-0.16h1.11c0.08 0 0.14 0.04 0.17 0.12 0.09 0.21 0.16 0.43 0.29 0.65 0.51 0.85 1.44 1.35 2.43 1.35 0.72 0 1.41-0.28 1.94-0.76l-0.77-0.77c-0.07-0.07-0.1-0.16-0.1-0.25 0-0.19 0.15-0.34 0.35-0.34h2.49c0.2 0 0.36 0.15 0.36 0.34z"/></g>
<rect x="309.56" y="239.38" width="106.6" height="83.198" fill="none" stroke-width="3"/>
</g>
<g transform="matrix(1 0 0 -1 -215.67 942.21)" fill-rule="evenodd" stroke-miterlimit="10.433" ns0:preamble="C:\\Users\\Daniel\\AppData\\Roaming\\inkscape\\extensions\\default_packages.tex" ns0:text="$\\bm{x}_p^\\dagger$" xml:space="preserve"><g transform="matrix(2.9762 0 0 2.9762 -73.303 -1291.3)" fill-rule="evenodd" stroke="#000" stroke-miterlimit="10.433" stroke-width="0" ns0:preamble="C:\\Users\\Daniel\\AppData\\Roaming\\inkscape\\extensions\\default_packages.tex" ns0:text="$\\bm{x}_p^{\\dagger}$" xml:space="preserve"><path d="m154.06 711.22-0.04-0.01-0.03-0.01-0.03-0.02-0.03-0.01-0.03-0.01-0.03-0.02-0.02-0.02-0.03-0.02-0.02-0.01-0.03-0.02-0.02-0.03-0.02-0.02-0.02-0.02-0.02-0.02-0.02-0.02-0.02-0.03-0.01-0.02-0.02-0.03-0.01-0.02-0.02-0.03-0.01-0.02-0.01-0.03-0.01-0.02-0.01-0.03-0.01-0.02v-0.03l-0.01-0.03v-0.02l-0.01-0.03v-0.07c0-0.22 0.17-0.45 0.5-0.45 0.35 0 0.72 0.28 0.72 0.77 0 0.53-0.53 0.87-1.14 0.87-0.57 0-0.94-0.42-1.07-0.6-0.25 0.42-0.81 0.6-1.38 0.6-1.25 0-1.93-1.22-1.93-1.55 0-0.13 0.15-0.13 0.24-0.13 0.12 0 0.19 0 0.23 0.12 0.29 0.91 1.01 1.21 1.41 1.21 0.38 0 0.56-0.18 0.56-0.5 0-0.19-0.14-0.73-0.23-1.09l-0.33-1.36c-0.15-0.61-0.51-0.91-0.85-0.91-0.05 0-0.28 0-0.48 0.15 0.36 0.1 0.54 0.44 0.54 0.69 0 0.22-0.17 0.45-0.5 0.45-0.35 0-0.72-0.28-0.72-0.77 0-0.53 0.53-0.87 1.14-0.87 0.57 0 0.93 0.42 1.06 0.6 0.25-0.42 0.81-0.6 1.38-0.6 1.26 0 1.93 1.22 1.93 1.55 0 0.13-0.14 0.13-0.23 0.13-0.12 0-0.19 0-0.23-0.12-0.29-0.91-1.01-1.21-1.42-1.21-0.38 0-0.56 0.18-0.56 0.5 0 0.21 0.13 0.73 0.22 1.1 0.07 0.26 0.3 1.19 0.35 1.35 0.15 0.6 0.5 0.91 0.85 0.91 0.05 0 0.28 0 0.48-0.15z"/><path d="m157.19 713.76h0.02l0.02-0.01h0.06l0.02-0.01h0.04l0.01-0.01h0.03l0.01-0.01h0.03l0.01-0.01h0.03l0.02-0.01h0.03l0.02-0.01h0.02l0.02-0.01c0.22-0.06 0.39-0.1 0.52-0.1 0.28 0 0.3 0.2 0.3 0.27 0 0.05-0.02 0.27-0.3 0.27-0.13 0-0.3-0.04-0.52-0.1-0.21-0.06-0.28-0.07-0.39-0.08 0.02 0.24 0.07 0.53 0.1 0.75 0.03 0.14 0.09 0.49 0.09 0.74 0 0.21-0.09 0.32-0.27 0.32-0.15 0-0.27-0.08-0.27-0.32 0-0.23 0.05-0.58 0.09-0.82 0.02-0.07 0.08-0.41 0.1-0.67-0.11 0.01-0.18 0.02-0.39 0.08-0.22 0.06-0.39 0.1-0.52 0.1-0.28 0-0.3-0.21-0.3-0.27s0.02-0.27 0.3-0.27c0.13 0 0.3 0.04 0.52 0.1 0.21 0.06 0.28 0.06 0.39 0.08-0.02-0.18-0.07-0.4-0.1-0.54-0.09-0.44-0.09-0.49-0.09-0.85 0-1.34 0.13-2.76 0.15-2.9 0.01-0.06 0.02-0.11 0.12-0.11s0.11 0.05 0.13 0.14c0 0.01 0.05 0.61 0.08 1.04 0.03 0.61 0.06 1.22 0.06 1.83 0 0.36 0 0.41-0.09 0.86-0.02 0.08-0.08 0.35-0.1 0.53z"/><path d="m155.8 703.92v-0.01l-0.01-0.02v-0.02l-0.01-0.01v-0.03l-0.01-0.01v-0.02l-0.01-0.01v-0.01l-0.01-0.01v-0.01l-0.01-0.01-0.01-0.01v-0.01h-0.01l-0.01-0.01-0.01-0.01h-0.01l-0.01-0.01h-0.01l-0.02-0.01h-0.01l-0.02-0.01h-0.08l-0.01-0.01h-0.07c-0.09 0-0.19 0-0.19-0.14 0-0.08 0.06-0.11 0.1-0.11 0.18 0 0.41 0.03 0.6 0.03 0.24 0 0.5-0.03 0.73-0.03 0.07 0 0.14 0.02 0.14 0.16 0 0.09-0.09 0.09-0.18 0.09-0.15 0-0.34 0-0.34 0.09 0 0.03 0.05 0.21 0.08 0.32 0.08 0.37 0.18 0.74 0.25 1.03 0.09-0.14 0.31-0.41 0.73-0.41v0.2c-0.5 0-0.63 0.53-0.63 0.6 0 0.03 0.02 0.08 0.02 0.11l0.35 1.39c0.41 0.54 0.76 0.64 0.98 0.64 0.28 0 0.51-0.2 0.51-0.67 0-0.29-0.15-1-0.36-1.4-0.18-0.34-0.52-0.67-0.87-0.67v-0.2c0.85 0 1.79 0.94 1.79 1.98 0 0.81-0.56 1.16-1.05 1.16-0.43 0-0.8-0.29-0.99-0.49-0.12 0.4-0.51 0.49-0.72 0.49-0.27 0-0.44-0.18-0.55-0.37-0.14-0.24-0.25-0.65-0.25-0.69 0-0.1 0.1-0.1 0.12-0.1 0.09 0 0.1 0.03 0.15 0.21 0.1 0.41 0.24 0.75 0.51 0.75 0.18 0 0.23-0.15 0.23-0.34 0-0.07-0.01-0.16-0.02-0.21z"/></g></g>
<g transform="translate(-250.41 -83.714)" fill="none" stroke-width="3">
<path d="m394.17 176.74v52.689" marker-end="url(#Arrow2Mend)"/>
<path d="m343.2 233.96v-52.689" marker-end="url(#a)"/>
</g>
<g transform="matrix(3.1088 0 0 -3.1088 -411.68 2327)" fill-rule="evenodd" stroke-miterlimit="10.433" stroke-width="0" ns0:preamble="C:\\Users\\Daniel\\AppData\\Roaming\\inkscape\\extensions\\default_packages.tex" ns0:text="$\\bm{x}_c^{*}$" xml:space="preserve"><path d="m154.06 711.22-0.04-0.01-0.03-0.01-0.03-0.02-0.03-0.01-0.03-0.01-0.03-0.02-0.02-0.02-0.03-0.02-0.02-0.01-0.03-0.02-0.02-0.03-0.02-0.02-0.02-0.02-0.02-0.02-0.02-0.02-0.02-0.03-0.01-0.02-0.02-0.03-0.01-0.02-0.02-0.03-0.01-0.02-0.01-0.03-0.01-0.02-0.01-0.03-0.01-0.02v-0.03l-0.01-0.03v-0.02l-0.01-0.03v-0.07c0-0.22 0.17-0.45 0.5-0.45 0.35 0 0.72 0.28 0.72 0.77 0 0.53-0.53 0.87-1.14 0.87-0.57 0-0.94-0.42-1.07-0.6-0.25 0.42-0.81 0.6-1.38 0.6-1.25 0-1.93-1.22-1.93-1.55 0-0.13 0.15-0.13 0.24-0.13 0.12 0 0.19 0 0.23 0.12 0.29 0.91 1.01 1.21 1.41 1.21 0.38 0 0.56-0.18 0.56-0.5 0-0.19-0.14-0.73-0.23-1.09l-0.33-1.36c-0.15-0.61-0.51-0.91-0.85-0.91-0.05 0-0.28 0-0.48 0.15 0.36 0.1 0.54 0.44 0.54 0.69 0 0.22-0.17 0.45-0.5 0.45-0.35 0-0.72-0.28-0.72-0.77 0-0.53 0.53-0.87 1.14-0.87 0.57 0 0.93 0.42 1.06 0.6 0.25-0.42 0.81-0.6 1.38-0.6 1.26 0 1.93 1.22 1.93 1.55 0 0.13-0.14 0.13-0.23 0.13-0.12 0-0.19 0-0.23-0.12-0.29-0.91-1.01-1.21-1.42-1.21-0.38 0-0.56 0.18-0.56 0.5 0 0.21 0.13 0.73 0.22 1.1 0.07 0.26 0.3 1.19 0.35 1.35 0.15 0.6 0.5 0.91 0.85 0.91 0.05 0 0.28 0 0.48-0.15z"/><path d="m157.54 712.58 0.05 0.03 0.05 0.02 0.05 0.02 0.05 0.02 0.04 0.02 0.05 0.02 0.04 0.02 0.04 0.01 0.04 0.02 0.04 0.02 0.04 0.01 0.03 0.02 0.03 0.01 0.04 0.01 0.03 0.02 0.03 0.01 0.03 0.01 0.03 0.01 0.02 0.02 0.03 0.01 0.02 0.01 0.03 0.01 0.02 0.01 0.02 0.01 0.02 0.01h0.02l0.04 0.02 0.04 0.02 0.03 0.01c0.14 0.06 0.2 0.09 0.2 0.22 0 0.12-0.09 0.22-0.22 0.22-0.05 0-0.06 0-0.14-0.06l-0.95-0.63 0.1 1.02c0.01 0.13 0 0.3-0.21 0.3-0.08 0-0.22-0.05-0.22-0.2 0-0.07 0.03-0.28 0.04-0.35 0.01-0.11 0.06-0.61 0.07-0.77l-0.94 0.63c-0.07 0.04-0.09 0.06-0.15 0.06-0.13 0-0.22-0.1-0.22-0.22 0-0.14 0.08-0.18 0.15-0.2l1.05-0.44c-0.57-0.25-0.83-0.35-1-0.43-0.14-0.06-0.2-0.08-0.2-0.22 0-0.12 0.09-0.22 0.22-0.22 0.05 0 0.06 0 0.14 0.06l0.95 0.64-0.11-1.12c0-0.16 0.14-0.21 0.22-0.21s0.22 0.05 0.22 0.21c0 0.06-0.03 0.27-0.04 0.34-0.01 0.12-0.06 0.62-0.07 0.78l0.83-0.56c0.19-0.14 0.2-0.14 0.26-0.14 0.13 0 0.22 0.1 0.22 0.22 0 0.14-0.09 0.18-0.15 0.2z"/><path d="m158.34 707.43h-0.05l-0.02-0.01-0.02-0.01h-0.02l-0.02-0.01-0.01-0.01-0.02-0.01-0.02-0.01-0.01-0.01-0.02-0.01-0.01-0.02-0.02-0.01-0.01-0.01-0.01-0.01-0.01-0.02-0.01-0.01-0.01-0.02-0.01-0.01-0.01-0.01-0.01-0.02v-0.01l-0.01-0.02-0.01-0.01v-0.03l-0.01-0.02v-0.04l-0.01-0.02v-0.01c0-0.19 0.15-0.26 0.28-0.26 0.15 0 0.39 0.11 0.39 0.44 0 0.48-0.54 0.61-0.92 0.61-1.05 0-2.02-0.96-2.02-1.93 0-0.6 0.42-1.21 1.3-1.21 1.18 0 1.73 0.69 1.73 0.79 0 0.04-0.06 0.12-0.12 0.12-0.04 0-0.06-0.02-0.11-0.07-0.55-0.64-1.36-0.64-1.49-0.64-0.5 0-0.73 0.34-0.73 0.77 0 0.2 0.1 0.96 0.46 1.44 0.27 0.34 0.63 0.53 0.98 0.53 0.1 0 0.44-0.01 0.61-0.21z"/></g>
<g transform="translate(-249.06 -93.714)">
<g transform="matrix(3.1088 0 0 -3.1088 -137.78 2600.5)" fill-rule="evenodd" stroke-miterlimit="10.433" stroke-width="0" ns0:preamble="C:\\Users\\Daniel\\AppData\\Roaming\\inkscape\\extensions\\default_packages.tex" ns0:text="$\\bm{x}_c^{*}$" xml:space="preserve"><path d="m154.06 711.22-0.04-0.01-0.03-0.01-0.03-0.02-0.03-0.01-0.03-0.01-0.03-0.02-0.02-0.02-0.03-0.02-0.02-0.01-0.03-0.02-0.02-0.03-0.02-0.02-0.02-0.02-0.02-0.02-0.02-0.02-0.02-0.03-0.01-0.02-0.02-0.03-0.01-0.02-0.02-0.03-0.01-0.02-0.01-0.03-0.01-0.02-0.01-0.03-0.01-0.02v-0.03l-0.01-0.03v-0.02l-0.01-0.03v-0.07c0-0.22 0.17-0.45 0.5-0.45 0.35 0 0.72 0.28 0.72 0.77 0 0.53-0.53 0.87-1.14 0.87-0.57 0-0.94-0.42-1.07-0.6-0.25 0.42-0.81 0.6-1.38 0.6-1.25 0-1.93-1.22-1.93-1.55 0-0.13 0.15-0.13 0.24-0.13 0.12 0 0.19 0 0.23 0.12 0.29 0.91 1.01 1.21 1.41 1.21 0.38 0 0.56-0.18 0.56-0.5 0-0.19-0.14-0.73-0.23-1.09l-0.33-1.36c-0.15-0.61-0.51-0.91-0.85-0.91-0.05 0-0.28 0-0.48 0.15 0.36 0.1 0.54 0.44 0.54 0.69 0 0.22-0.17 0.45-0.5 0.45-0.35 0-0.72-0.28-0.72-0.77 0-0.53 0.53-0.87 1.14-0.87 0.57 0 0.93 0.42 1.06 0.6 0.25-0.42 0.81-0.6 1.38-0.6 1.26 0 1.93 1.22 1.93 1.55 0 0.13-0.14 0.13-0.23 0.13-0.12 0-0.19 0-0.23-0.12-0.29-0.91-1.01-1.21-1.42-1.21-0.38 0-0.56 0.18-0.56 0.5 0 0.21 0.13 0.73 0.22 1.1 0.07 0.26 0.3 1.19 0.35 1.35 0.15 0.6 0.5 0.91 0.85 0.91 0.05 0 0.28 0 0.48-0.15z"/><path d="m157.54 712.58 0.05 0.03 0.05 0.02 0.05 0.02 0.05 0.02 0.04 0.02 0.05 0.02 0.04 0.02 0.04 0.01 0.04 0.02 0.04 0.02 0.04 0.01 0.03 0.02 0.03 0.01 0.04 0.01 0.03 0.02 0.03 0.01 0.03 0.01 0.03 0.01 0.02 0.02 0.03 0.01 0.02 0.01 0.03 0.01 0.02 0.01 0.02 0.01 0.02 0.01h0.02l0.04 0.02 0.04 0.02 0.03 0.01c0.14 0.06 0.2 0.09 0.2 0.22 0 0.12-0.09 0.22-0.22 0.22-0.05 0-0.06 0-0.14-0.06l-0.95-0.63 0.1 1.02c0.01 0.13 0 0.3-0.21 0.3-0.08 0-0.22-0.05-0.22-0.2 0-0.07 0.03-0.28 0.04-0.35 0.01-0.11 0.06-0.61 0.07-0.77l-0.94 0.63c-0.07 0.04-0.09 0.06-0.15 0.06-0.13 0-0.22-0.1-0.22-0.22 0-0.14 0.08-0.18 0.15-0.2l1.05-0.44c-0.57-0.25-0.83-0.35-1-0.43-0.14-0.06-0.2-0.08-0.2-0.22 0-0.12 0.09-0.22 0.22-0.22 0.05 0 0.06 0 0.14 0.06l0.95 0.64-0.11-1.12c0-0.16 0.14-0.21 0.22-0.21s0.22 0.05 0.22 0.21c0 0.06-0.03 0.27-0.04 0.34-0.01 0.12-0.06 0.62-0.07 0.78l0.83-0.56c0.19-0.14 0.2-0.14 0.26-0.14 0.13 0 0.22 0.1 0.22 0.22 0 0.14-0.09 0.18-0.15 0.2z"/><path d="m158.34 707.43h-0.05l-0.02-0.01-0.02-0.01h-0.02l-0.02-0.01-0.01-0.01-0.02-0.01-0.02-0.01-0.01-0.01-0.02-0.01-0.01-0.02-0.02-0.01-0.01-0.01-0.01-0.01-0.01-0.02-0.01-0.01-0.01-0.02-0.01-0.01-0.01-0.01-0.01-0.02v-0.01l-0.01-0.02-0.01-0.01v-0.03l-0.01-0.02v-0.04l-0.01-0.02v-0.01c0-0.19 0.15-0.26 0.28-0.26 0.15 0 0.39 0.11 0.39 0.44 0 0.48-0.54 0.61-0.92 0.61-1.05 0-2.02-0.96-2.02-1.93 0-0.6 0.42-1.21 1.3-1.21 1.18 0 1.73 0.69 1.73 0.79 0 0.04-0.06 0.12-0.12 0.12-0.04 0-0.06-0.02-0.11-0.07-0.55-0.64-1.36-0.64-1.49-0.64-0.5 0-0.73 0.34-0.73 0.77 0 0.2 0.1 0.96 0.46 1.44 0.27 0.34 0.63 0.53 0.98 0.53 0.1 0 0.44-0.01 0.61-0.21z"/></g>
<g transform="matrix(2.9762 0 0 -2.9762 -64.76 2504.6)" fill-rule="evenodd" stroke-miterlimit="10.433" stroke-width="0" ns0:preamble="C:\\Users\\Daniel\\AppData\\Roaming\\inkscape\\extensions\\default_packages.tex" ns0:text="$\\bm{x}_p^{*}$" xml:space="preserve"><path d="m154.06 711.22-0.04-0.01-0.03-0.01-0.03-0.02-0.03-0.01-0.03-0.01-0.03-0.02-0.02-0.02-0.03-0.02-0.02-0.01-0.03-0.02-0.02-0.03-0.02-0.02-0.02-0.02-0.02-0.02-0.02-0.02-0.02-0.03-0.01-0.02-0.02-0.03-0.01-0.02-0.02-0.03-0.01-0.02-0.01-0.03-0.01-0.02-0.01-0.03-0.01-0.02v-0.03l-0.01-0.03v-0.02l-0.01-0.03v-0.07c0-0.22 0.17-0.45 0.5-0.45 0.35 0 0.72 0.28 0.72 0.77 0 0.53-0.53 0.87-1.14 0.87-0.57 0-0.94-0.42-1.07-0.6-0.25 0.42-0.81 0.6-1.38 0.6-1.25 0-1.93-1.22-1.93-1.55 0-0.13 0.15-0.13 0.24-0.13 0.12 0 0.19 0 0.23 0.12 0.29 0.91 1.01 1.21 1.41 1.21 0.38 0 0.56-0.18 0.56-0.5 0-0.19-0.14-0.73-0.23-1.09l-0.33-1.36c-0.15-0.61-0.51-0.91-0.85-0.91-0.05 0-0.28 0-0.48 0.15 0.36 0.1 0.54 0.44 0.54 0.69 0 0.22-0.17 0.45-0.5 0.45-0.35 0-0.72-0.28-0.72-0.77 0-0.53 0.53-0.87 1.14-0.87 0.57 0 0.93 0.42 1.06 0.6 0.25-0.42 0.81-0.6 1.38-0.6 1.26 0 1.93 1.22 1.93 1.55 0 0.13-0.14 0.13-0.23 0.13-0.12 0-0.19 0-0.23-0.12-0.29-0.91-1.01-1.21-1.42-1.21-0.38 0-0.56 0.18-0.56 0.5 0 0.21 0.13 0.73 0.22 1.1 0.07 0.26 0.3 1.19 0.35 1.35 0.15 0.6 0.5 0.91 0.85 0.91 0.05 0 0.28 0 0.48-0.15z"/><path d="m157.54 712.58 0.05 0.03 0.05 0.02 0.05 0.02 0.05 0.02 0.04 0.02 0.05 0.02 0.04 0.02 0.04 0.01 0.04 0.02 0.04 0.02 0.04 0.01 0.03 0.02 0.03 0.01 0.04 0.01 0.03 0.02 0.03 0.01 0.03 0.01 0.03 0.01 0.02 0.02 0.03 0.01 0.02 0.01 0.03 0.01 0.02 0.01 0.02 0.01 0.02 0.01h0.02l0.04 0.02 0.04 0.02 0.03 0.01c0.14 0.06 0.2 0.09 0.2 0.22 0 0.12-0.09 0.22-0.22 0.22-0.05 0-0.06 0-0.14-0.06l-0.95-0.63 0.1 1.02c0.01 0.13 0 0.3-0.21 0.3-0.08 0-0.22-0.05-0.22-0.2 0-0.07 0.03-0.28 0.04-0.35 0.01-0.11 0.06-0.61 0.07-0.77l-0.94 0.63c-0.07 0.04-0.09 0.06-0.15 0.06-0.13 0-0.22-0.1-0.22-0.22 0-0.14 0.08-0.18 0.15-0.2l1.05-0.44c-0.57-0.25-0.83-0.35-1-0.43-0.14-0.06-0.2-0.08-0.2-0.22 0-0.12 0.09-0.22 0.22-0.22 0.05 0 0.06 0 0.14 0.06l0.95 0.64-0.11-1.12c0-0.16 0.14-0.21 0.22-0.21s0.22 0.05 0.22 0.21c0 0.06-0.03 0.27-0.04 0.34-0.01 0.12-0.06 0.62-0.07 0.78l0.83-0.56c0.19-0.14 0.2-0.14 0.26-0.14 0.13 0 0.22 0.1 0.22 0.22 0 0.14-0.09 0.18-0.15 0.2z"/><path d="m155.8 703.92v-0.01l-0.01-0.02v-0.02l-0.01-0.01v-0.03l-0.01-0.01v-0.02l-0.01-0.01v-0.01l-0.01-0.01v-0.01l-0.01-0.01-0.01-0.01v-0.01h-0.01l-0.01-0.01-0.01-0.01h-0.01l-0.01-0.01h-0.01l-0.02-0.01h-0.01l-0.02-0.01h-0.08l-0.01-0.01h-0.07c-0.09 0-0.19 0-0.19-0.14 0-0.08 0.06-0.11 0.1-0.11 0.18 0 0.41 0.03 0.6 0.03 0.24 0 0.5-0.03 0.73-0.03 0.07 0 0.14 0.02 0.14 0.16 0 0.09-0.09 0.09-0.18 0.09-0.15 0-0.34 0-0.34 0.09 0 0.03 0.05 0.21 0.08 0.32 0.08 0.37 0.18 0.74 0.25 1.03 0.09-0.14 0.31-0.41 0.73-0.41v0.2c-0.5 0-0.63 0.53-0.63 0.6 0 0.03 0.02 0.08 0.02 0.11l0.35 1.39c0.41 0.54 0.76 0.64 0.98 0.64 0.28 0 0.51-0.2 0.51-0.67 0-0.29-0.15-1-0.36-1.4-0.18-0.34-0.52-0.67-0.87-0.67v-0.2c0.85 0 1.79 0.94 1.79 1.98 0 0.81-0.56 1.16-1.05 1.16-0.43 0-0.8-0.29-0.99-0.49-0.12 0.4-0.51 0.49-0.72 0.49-0.27 0-0.44-0.18-0.55-0.37-0.14-0.24-0.25-0.65-0.25-0.69 0-0.1 0.1-0.1 0.12-0.1 0.09 0 0.1 0.03 0.15 0.21 0.1 0.41 0.24 0.75 0.51 0.75 0.18 0 0.23-0.15 0.23-0.34 0-0.07-0.01-0.16-0.02-0.21z"/></g>
<path d="m393.93 343.72v34.186" fill="none" marker-end="url(#c)" stroke-width="3"/>
<path d="m340.69 343.72v34.186" fill="none" marker-end="url(#b)" stroke-width="3"/>
</g>
</g>
</svg>
