<?xml version="1.0" encoding="UTF-8" standalone="no"?>
<!-- Created with Inkscape (http://www.inkscape.org/) -->

<svg
   xmlns:ns0="http://www.iki.fi/pav/software/textext/"
   xmlns:dc="http://purl.org/dc/elements/1.1/"
   xmlns:cc="http://creativecommons.org/ns#"
   xmlns:rdf="http://www.w3.org/1999/02/22-rdf-syntax-ns#"
   xmlns:svg="http://www.w3.org/2000/svg"
   xmlns="http://www.w3.org/2000/svg"
   xmlns:sodipodi="http://sodipodi.sourceforge.net/DTD/sodipodi-0.dtd"
   xmlns:inkscape="http://www.inkscape.org/namespaces/inkscape"
   sodipodi:docname="map.svg"
   inkscape:version="0.92.0 r15299"
   version="1.1"
   id="svg2"
   viewBox="0 0 360.00001 360.00001"
   height="4in"
   width="4in">
  <sodipodi:namedview
     units="in"
     inkscape:window-maximized="1"
     inkscape:window-y="-8"
     inkscape:window-x="-8"
     inkscape:window-height="1057"
     inkscape:window-width="1868"
     showgrid="false"
     inkscape:current-layer="layer1"
     inkscape:document-units="px"
     inkscape:cy="207.36283"
     inkscape:cx="12.395195"
     inkscape:zoom="1.4"
     inkscape:pageshadow="2"
     inkscape:pageopacity="0.0"
     borderopacity="1.0"
     bordercolor="#666666"
     pagecolor="#ffffff"
     id="base" />
  <defs
     id="defs4">
    <marker
       inkscape:isstock="true"
       style="overflow:visible;"
       id="marker4936"
       refX="0.0"
       refY="0.0"
       orient="auto"
       inkscape:stockid="Arrow1Mend">
      <path
         transform="scale(0.4) rotate(180) translate(10,0)"
         style="fill-rule:evenodd;stroke:#000000;stroke-width:1pt;stroke-opacity:1;fill:#000000;fill-opacity:1"
         d="M 0.0,0.0 L 5.0,-5.0 L -12.5,0.0 L 5.0,5.0 L 0.0,0.0 z "
         id="path4938" />
    </marker>
    <marker
       inkscape:stockid="Arrow1Mend"
       orient="auto"
       refY="0.0"
       refX="0.0"
       id="Arrow1Mend"
       style="overflow:visible;"
       inkscape:isstock="true"
       inkscape:collect="always">
      <path
         id="path4475"
         d="M 0.0,0.0 L 5.0,-5.0 L -12.5,0.0 L 5.0,5.0 L 0.0,0.0 z "
         style="fill-rule:evenodd;stroke:#000000;stroke-width:1pt;stroke-opacity:1;fill:#000000;fill-opacity:1"
         transform="scale(0.4) rotate(180) translate(10,0)" />
    </marker>
    <marker
       inkscape:stockid="Arrow1Mstart"
       orient="auto"
       refY="0"
       refX="0"
       id="Arrow1Mstart-8"
       style="overflow:visible"
       inkscape:isstock="true">
      <path
         inkscape:connector-curvature="0"
         id="path4472-11"
         d="M 0,0 5,-5 -12.5,0 5,5 0,0 Z"
         style="fill:#000000;fill-opacity:1;fill-rule:evenodd;stroke:#000000;stroke-width:1pt;stroke-opacity:1"
         transform="matrix(0.4,0,0,0.4,4,0)" />
    </marker>
    <marker
       inkscape:stockid="Arrow1Mend"
       orient="auto"
       refY="0"
       refX="0"
       id="Arrow1Mend-0"
       style="overflow:visible"
       inkscape:isstock="true">
      <path
         inkscape:connector-curvature="0"
         id="path4475-5"
         d="M 0,0 5,-5 -12.5,0 5,5 0,0 Z"
         style="fill:#000000;fill-opacity:1;fill-rule:evenodd;stroke:#000000;stroke-width:1pt;stroke-opacity:1"
         transform="matrix(-0.4,0,0,-0.4,-4,0)" />
    </marker>
    <marker
       inkscape:stockid="Arrow1Mstart"
       orient="auto"
       refY="0"
       refX="0"
       id="Arrow1Mstart-8-7"
       style="overflow:visible"
       inkscape:isstock="true">
      <path
         inkscape:connector-curvature="0"
         id="path4472-11-9"
         d="M 0,0 5,-5 -12.5,0 5,5 0,0 Z"
         style="fill:#000000;fill-opacity:1;fill-rule:evenodd;stroke:#000000;stroke-width:1pt;stroke-opacity:1"
         transform="matrix(0.4,0,0,0.4,4,0)" />
    </marker>
    <marker
       inkscape:stockid="Arrow1Mend"
       orient="auto"
       refY="0"
       refX="0"
       id="Arrow1Mend-0-0"
       style="overflow:visible"
       inkscape:isstock="true">
      <path
         inkscape:connector-curvature="0"
         id="path4475-5-6"
         d="M 0,0 5,-5 -12.5,0 5,5 0,0 Z"
         style="fill:#000000;fill-opacity:1;fill-rule:evenodd;stroke:#000000;stroke-width:1pt;stroke-opacity:1"
         transform="matrix(-0.4,0,0,-0.4,-4,0)" />
    </marker>
    <marker
       inkscape:stockid="Arrow1Mstart"
       orient="auto"
       refY="0"
       refX="0"
       id="Arrow1Mstart-8-3"
       style="overflow:visible"
       inkscape:isstock="true">
      <path
         inkscape:connector-curvature="0"
         id="path4472-11-4"
         d="M 0,0 5,-5 -12.5,0 5,5 0,0 Z"
         style="fill:#000000;fill-opacity:1;fill-rule:evenodd;stroke:#000000;stroke-width:1pt;stroke-opacity:1"
         transform="matrix(0.4,0,0,0.4,4,0)" />
    </marker>
    <marker
       inkscape:stockid="Arrow1Mend"
       orient="auto"
       refY="0"
       refX="0"
       id="Arrow1Mend-0-9"
       style="overflow:visible"
       inkscape:isstock="true">
      <path
         inkscape:connector-curvature="0"
         id="path4475-5-4"
         d="M 0,0 5,-5 -12.5,0 5,5 0,0 Z"
         style="fill:#000000;fill-opacity:1;fill-rule:evenodd;stroke:#000000;stroke-width:1pt;stroke-opacity:1"
         transform="matrix(-0.4,0,0,-0.4,-4,0)" />
    </marker>
    <marker
       inkscape:stockid="Arrow1Mstart"
       orient="auto"
       refY="0"
       refX="0"
       id="Arrow1Mstart-8-7-1"
       style="overflow:visible"
       inkscape:isstock="true">
      <path
         inkscape:connector-curvature="0"
         id="path4472-11-9-4"
         d="M 0,0 5,-5 -12.5,0 5,5 0,0 Z"
         style="fill:#000000;fill-opacity:1;fill-rule:evenodd;stroke:#000000;stroke-width:1pt;stroke-opacity:1"
         transform="matrix(0.4,0,0,0.4,4,0)" />
    </marker>
    <marker
       inkscape:stockid="Arrow1Mstart"
       orient="auto"
       refY="0"
       refX="0"
       id="Arrow1Mstart-8-7-1-6"
       style="overflow:visible"
       inkscape:isstock="true">
      <path
         inkscape:connector-curvature="0"
         id="path4472-11-9-4-6"
         d="M 0,0 5,-5 -12.5,0 5,5 0,0 Z"
         style="fill:#000000;fill-opacity:1;fill-rule:evenodd;stroke:#000000;stroke-width:1pt;stroke-opacity:1"
         transform="matrix(0.4,0,0,0.4,4,0)" />
    </marker>
    <marker
       inkscape:stockid="Arrow1Mstart"
       orient="auto"
       refY="0"
       refX="0"
       id="Arrow1Mstart-8-7-1-4"
       style="overflow:visible"
       inkscape:isstock="true">
      <path
         inkscape:connector-curvature="0"
         id="path4472-11-9-4-0"
         d="M 0,0 5,-5 -12.5,0 5,5 0,0 Z"
         style="fill:#000000;fill-opacity:1;fill-rule:evenodd;stroke:#000000;stroke-width:1pt;stroke-opacity:1"
         transform="matrix(0.4,0,0,0.4,4,0)" />
    </marker>
    <marker
       inkscape:stockid="Arrow1Mstart"
       orient="auto"
       refY="0"
       refX="0"
       id="Arrow1Mstart-8-7-1-69"
       style="overflow:visible"
       inkscape:isstock="true">
      <path
         inkscape:connector-curvature="0"
         id="path4472-11-9-4-2"
         d="M 0,0 5,-5 -12.5,0 5,5 0,0 Z"
         style="fill:#000000;fill-opacity:1;fill-rule:evenodd;stroke:#000000;stroke-width:1pt;stroke-opacity:1"
         transform="matrix(0.4,0,0,0.4,4,0)" />
    </marker>
    <marker
       inkscape:stockid="Arrow1Mstart"
       orient="auto"
       refY="0"
       refX="0"
       id="Arrow1Mstart-8-7-1-69-8"
       style="overflow:visible"
       inkscape:isstock="true">
      <path
         inkscape:connector-curvature="0"
         id="path4472-11-9-4-2-1"
         d="M 0,0 5,-5 -12.5,0 5,5 0,0 Z"
         style="fill:#000000;fill-opacity:1;fill-rule:evenodd;stroke:#000000;stroke-width:1pt;stroke-opacity:1"
         transform="matrix(0.4,0,0,0.4,4,0)" />
    </marker>
    <marker
       inkscape:stockid="Arrow1Mstart"
       orient="auto"
       refY="0"
       refX="0"
       id="Arrow1Mstart-8-7-1-69-8-6"
       style="overflow:visible"
       inkscape:isstock="true">
      <path
         inkscape:connector-curvature="0"
         id="path4472-11-9-4-2-1-4"
         d="M 0,0 5,-5 -12.5,0 5,5 0,0 Z"
         style="fill:#000000;fill-opacity:1;fill-rule:evenodd;stroke:#000000;stroke-width:1pt;stroke-opacity:1"
         transform="matrix(0.4,0,0,0.4,4,0)" />
    </marker>
  </defs>
  <metadata
     id="metadata7">
    <rdf:RDF>
      <cc:Work
         rdf:about="">
        <dc:format>image/svg+xml</dc:format>
        <dc:type
           rdf:resource="http://purl.org/dc/dcmitype/StillImage" />
        <dc:title></dc:title>
      </cc:Work>
    </rdf:RDF>
  </metadata>
  <g
     inkscape:label="Layer 1"
     inkscape:groupmode="layer"
     id="layer1"
     transform="translate(0,-692.36215)">
    <g
       style="font-style:normal;font-variant:normal;font-weight:normal;font-stretch:normal;letter-spacing:normal;word-spacing:normal;text-anchor:start;fill:#000000;fill-opacity:1;fill-rule:evenodd;stroke:#000000;stroke-linecap:butt;stroke-linejoin:miter;stroke-miterlimit:10.43299961;stroke-dasharray:none;stroke-dashoffset:0;stroke-opacity:1"
       id="content"
       transform="matrix(4,0,0,-4,-529.69598,3388.448)"
       xml:space="preserve"
       stroke-miterlimit="10.433"
       font-style="normal"
       font-variant="normal"
       font-weight="normal"
       font-stretch="normal"
       font-size-adjust="none"
       letter-spacing="normal"
       word-spacing="normal"
       ns0:text="$P$"
       ns0:preamble="C:\\Users\\Dan\\AppData\\Roaming\\inkscape\\extensions\\default_packages.tex"><path
         style="fill:#000000;stroke-width:0"
         inkscape:connector-curvature="0"
         d="m 151.73,660.37 0.04,0.26 0.68,2.7 c 0.09,0.35 0.11,0.38 0.54,0.38 l 0.96,0 c 0.82,0 1.35,-0.27 1.35,-0.95 0,-0.39 -0.2,-1.24 -0.59,-1.6 -0.49,-0.45 -1.09,-0.53 -1.53,-0.53 l -1.41,0 -0.04,-0.26 1.7,0 c 1.42,0 2.8,1.04 2.8,2.15 0,0.76 -0.66,1.5 -1.96,1.5 l -3.23,0 c -0.19,0 -0.3,0 -0.3,-0.19 0,-0.12 0.09,-0.12 0.29,-0.12 0.12,0 0.31,-0.01 0.42,-0.02 0.16,-0.02 0.22,-0.05 0.22,-0.16 0,-0.04 -0.01,-0.07 -0.04,-0.19 l -1.33,-5.33 c -0.1,-0.39 -0.12,-0.47 -0.91,-0.47 -0.17,0 -0.28,0 -0.28,-0.19 0,-0.12 0.12,-0.12 0.15,-0.12 0.28,0 0.99,0.04 1.27,0.04 0.21,0 0.43,-0.01 0.63,-0.01 0.22,0 0.44,-0.03 0.65,-0.03 0.07,0 0.2,0 0.2,0.2 0,0.11 -0.09,0.11 -0.28,0.11 -0.36,0 -0.64,0 -0.64,0.18 0,0.06 0.01,0.11 0.03,0.17 z"
         id="path4142" /></g>    <g
       style="font-style:normal;font-variant:normal;font-weight:normal;font-stretch:normal;letter-spacing:normal;word-spacing:normal;text-anchor:start;fill:#000000;fill-opacity:1;fill-rule:evenodd;stroke:#000000;stroke-linecap:butt;stroke-linejoin:miter;stroke-miterlimit:10.43299961;stroke-dasharray:none;stroke-dashoffset:0;stroke-opacity:1"
       ns0:preamble="C:\\Users\\Dan\\AppData\\Roaming\\inkscape\\extensions\\default_packages.tex"
       ns0:text="$\\bar{P}$"
       word-spacing="normal"
       letter-spacing="normal"
       font-size-adjust="none"
       font-stretch="normal"
       font-weight="normal"
       font-variant="normal"
       font-style="normal"
       stroke-miterlimit="10.433"
       xml:space="preserve"
       transform="matrix(4,0,0,-4,-369.39143,3388.448)"
       id="g4174"><polygon
         id="polygon4176"
         style="font-style:normal;font-variant:normal;font-weight:normal;font-stretch:normal;letter-spacing:normal;word-spacing:normal;text-anchor:start;fill:#000000;fill-opacity:1;fill-rule:evenodd;stroke:#000000;stroke-width:0;stroke-linecap:butt;stroke-linejoin:miter;stroke-miterlimit:10.43299961;stroke-dasharray:none;stroke-dashoffset:0;stroke-opacity:1"
         word-spacing="normal"
         stroke-miterlimit="10.433"
         letter-spacing="normal"
         font-weight="normal"
         font-variant="normal"
         font-style="normal"
         font-stretch="normal"
         font-size-adjust="none"
         points="155.23,665.31 155.23,665.61 151.63,665.61 151.63,665.31 " /><path
         id="path4178"
         style="font-style:normal;font-variant:normal;font-weight:normal;font-stretch:normal;letter-spacing:normal;word-spacing:normal;text-anchor:start;fill:#000000;fill-opacity:1;fill-rule:evenodd;stroke:#000000;stroke-width:0;stroke-linecap:butt;stroke-linejoin:miter;stroke-miterlimit:10.43299961;stroke-dasharray:none;stroke-dashoffset:0;stroke-opacity:1"
         word-spacing="normal"
         stroke-miterlimit="10.433"
         letter-spacing="normal"
         font-weight="normal"
         font-variant="normal"
         font-style="normal"
         font-stretch="normal"
         font-size-adjust="none"
         d="m 151.73,660.37 0.04,0.26 0.68,2.7 c 0.09,0.35 0.11,0.38 0.54,0.38 l 0.96,0 c 0.82,0 1.35,-0.27 1.35,-0.95 0,-0.39 -0.2,-1.24 -0.59,-1.6 -0.49,-0.45 -1.09,-0.53 -1.53,-0.53 l -1.41,0 -0.04,-0.26 1.7,0 c 1.42,0 2.8,1.04 2.8,2.15 0,0.76 -0.66,1.5 -1.96,1.5 l -3.23,0 c -0.19,0 -0.3,0 -0.3,-0.19 0,-0.12 0.09,-0.12 0.29,-0.12 0.12,0 0.31,-0.01 0.42,-0.02 0.16,-0.02 0.22,-0.05 0.22,-0.16 0,-0.04 -0.01,-0.07 -0.04,-0.19 l -1.33,-5.33 c -0.1,-0.39 -0.12,-0.47 -0.91,-0.47 -0.17,0 -0.28,0 -0.28,-0.19 0,-0.12 0.12,-0.12 0.15,-0.12 0.28,0 0.99,0.04 1.27,0.04 0.21,0 0.43,-0.01 0.63,-0.01 0.22,0 0.44,-0.03 0.65,-0.03 0.07,0 0.2,0 0.2,0.2 0,0.11 -0.09,0.11 -0.28,0.11 -0.36,0 -0.64,0 -0.64,0.18 0,0.06 0.01,0.11 0.03,0.17 z"
         inkscape:connector-curvature="0" /></g>    <g
       id="g4260"
       transform="matrix(4,0,0,-4,-529.59598,3496.5336)"
       xml:space="preserve"
       stroke-miterlimit="10.433"
       font-style="normal"
       font-variant="normal"
       font-weight="normal"
       font-stretch="normal"
       font-size-adjust="none"
       letter-spacing="normal"
       word-spacing="normal"
       ns0:text="$O$"
       ns0:preamble="C:\\Users\\Dan\\AppData\\Roaming\\inkscape\\extensions\\default_packages.tex"
       style="font-style:normal;font-variant:normal;font-weight:normal;font-stretch:normal;letter-spacing:normal;word-spacing:normal;text-anchor:start;fill:#000000;fill-opacity:1;fill-rule:evenodd;stroke:#000000;stroke-linecap:butt;stroke-linejoin:miter;stroke-miterlimit:10.43299961;stroke-dasharray:none;stroke-dashoffset:0;stroke-opacity:1"><path
         d="m 156.09,661.57 0,0.14 -0.01,0.15 -0.02,0.14 -0.02,0.14 -0.02,0.13 -0.04,0.14 -0.03,0.12 -0.05,0.13 -0.05,0.12 -0.05,0.11 -0.06,0.12 -0.06,0.1 -0.07,0.11 -0.07,0.1 -0.08,0.09 -0.08,0.09 -0.09,0.09 -0.09,0.08 -0.1,0.07 -0.09,0.07 -0.11,0.07 -0.1,0.06 -0.11,0.06 -0.12,0.05 -0.11,0.04 -0.13,0.04 -0.12,0.03 -0.13,0.03 -0.13,0.02 -0.13,0.02 -0.13,0 -0.14,0.01 -0.06,-0.25 c 0.82,0 1.71,-0.56 1.71,-2.04 0,-0.71 -0.27,-2.26 -1.25,-3.48 -0.48,-0.61 -1.3,-1.19 -2.14,-1.19 l 0,0 c -0.98,0 -1.68,0.8 -1.68,2.11 0,0.44 0.14,1.89 0.91,3.05 0.68,1.03 1.66,1.55 2.45,1.55 l 0.06,0.25 c -2.15,0 -4.35,-2.26 -4.35,-4.57 0,-1.65 1.12,-2.65 2.55,-2.65 2.12,0 4.34,2.17 4.34,4.55 z"
         font-size-adjust="none"
         font-stretch="normal"
         font-style="normal"
         font-variant="normal"
         font-weight="normal"
         letter-spacing="normal"
         stroke-miterlimit="10.433"
         word-spacing="normal"
         style="font-style:normal;font-variant:normal;font-weight:normal;font-stretch:normal;letter-spacing:normal;word-spacing:normal;text-anchor:start;fill:#000000;fill-opacity:1;fill-rule:evenodd;stroke:#000000;stroke-width:0;stroke-linecap:butt;stroke-linejoin:miter;stroke-miterlimit:10.43299961;stroke-dasharray:none;stroke-dashoffset:0;stroke-opacity:1"
         id="path4262"
         inkscape:connector-curvature="0" /></g>    <g
       style="font-style:normal;font-variant:normal;font-weight:normal;font-stretch:normal;letter-spacing:normal;word-spacing:normal;text-anchor:start;fill:#000000;fill-opacity:1;fill-rule:evenodd;stroke:#000000;stroke-linecap:butt;stroke-linejoin:miter;stroke-miterlimit:10.43299961;stroke-dasharray:none;stroke-dashoffset:0;stroke-opacity:1"
       ns0:preamble="C:\\Users\\Dan\\AppData\\Roaming\\inkscape\\extensions\\default_packages.tex"
       ns0:text="$\\bar{O}$"
       word-spacing="normal"
       letter-spacing="normal"
       font-size-adjust="none"
       font-stretch="normal"
       font-weight="normal"
       font-variant="normal"
       font-style="normal"
       stroke-miterlimit="10.433"
       xml:space="preserve"
       transform="matrix(4,0,0,-4,-369.29143,3496.5336)"
       id="g4299"><polygon
         id="polygon4301"
         style="font-style:normal;font-variant:normal;font-weight:normal;font-stretch:normal;letter-spacing:normal;word-spacing:normal;text-anchor:start;fill:#000000;fill-opacity:1;fill-rule:evenodd;stroke:#000000;stroke-width:0;stroke-linecap:butt;stroke-linejoin:miter;stroke-miterlimit:10.43299961;stroke-dasharray:none;stroke-dashoffset:0;stroke-opacity:1"
         word-spacing="normal"
         stroke-miterlimit="10.433"
         letter-spacing="normal"
         font-weight="normal"
         font-variant="normal"
         font-style="normal"
         font-stretch="normal"
         font-size-adjust="none"
         points="151.68,665.61 151.68,665.31 155.28,665.31 155.28,665.61 " /><path
         id="path4303"
         style="font-style:normal;font-variant:normal;font-weight:normal;font-stretch:normal;letter-spacing:normal;word-spacing:normal;text-anchor:start;fill:#000000;fill-opacity:1;fill-rule:evenodd;stroke:#000000;stroke-width:0;stroke-linecap:butt;stroke-linejoin:miter;stroke-miterlimit:10.43299961;stroke-dasharray:none;stroke-dashoffset:0;stroke-opacity:1"
         word-spacing="normal"
         stroke-miterlimit="10.433"
         letter-spacing="normal"
         font-weight="normal"
         font-variant="normal"
         font-style="normal"
         font-stretch="normal"
         font-size-adjust="none"
         d="m 156.09,661.57 0,0.14 -0.01,0.15 -0.02,0.14 -0.02,0.14 -0.02,0.14 -0.04,0.13 -0.03,0.12 -0.05,0.13 -0.05,0.12 -0.05,0.11 -0.06,0.12 -0.06,0.1 -0.07,0.11 -0.07,0.1 -0.08,0.09 -0.08,0.09 -0.09,0.09 -0.09,0.08 -0.1,0.07 -0.09,0.07 -0.11,0.07 -0.1,0.06 -0.11,0.06 -0.12,0.05 -0.11,0.04 -0.13,0.04 -0.12,0.03 -0.13,0.03 -0.13,0.02 -0.13,0.02 -0.13,0 -0.14,0.01 -0.06,-0.25 c 0.82,0 1.71,-0.56 1.71,-2.04 0,-0.71 -0.27,-2.26 -1.25,-3.48 -0.48,-0.61 -1.3,-1.19 -2.14,-1.19 l 0,0 c -0.98,0 -1.68,0.8 -1.68,2.11 0,0.44 0.14,1.89 0.91,3.05 0.68,1.03 1.66,1.55 2.45,1.55 l 0.06,0.25 c -2.15,0 -4.35,-2.26 -4.35,-4.57 0,-1.65 1.12,-2.65 2.55,-2.65 2.12,0 4.34,2.17 4.34,4.55 z"
         inkscape:connector-curvature="0" /></g>    <path
       style="fill:none;fill-rule:evenodd;stroke:#000000;stroke-width:1.5;stroke-linecap:butt;stroke-linejoin:miter;stroke-miterlimit:4;stroke-dasharray:none;stroke-opacity:1;marker-start:url(#Arrow1Mstart-8);marker-end:url(#Arrow1Mend-0)"
       d="M 109.99632,956.9343 H 212.27627"
       id="path4460-50"
       inkscape:connector-curvature="0" />
    <path
       style="fill:none;fill-rule:evenodd;stroke:#000000;stroke-width:1.5;stroke-linecap:butt;stroke-linejoin:miter;stroke-miterlimit:4;stroke-dasharray:none;stroke-opacity:1;marker-start:url(#Arrow1Mstart-8-7);marker-end:url(#Arrow1Mend-0-0)"
       d="m 109.99632,851.27364 102.27995,0"
       id="path4460-50-2"
       inkscape:connector-curvature="0" />
    <path
       style="fill:none;fill-rule:evenodd;stroke:#000000;stroke-width:1.5;stroke-linecap:butt;stroke-linejoin:miter;stroke-miterlimit:4;stroke-dasharray:none;stroke-opacity:1;marker-start:url(#Arrow1Mstart-8-3);marker-end:url(#Arrow1Mend-0-9)"
       d="m 109.99632,742.76799 102.27994,0"
       id="path4460-50-8"
       inkscape:connector-curvature="0" />
    <path
       style="fill:none;fill-rule:evenodd;stroke:#000000;stroke-width:1.5;stroke-linecap:butt;stroke-linejoin:miter;stroke-miterlimit:4;stroke-dasharray:none;stroke-opacity:1;marker-start:url(#Arrow1Mstart-8-7-1);marker-end:url(#marker4936)"
       d="m 80.98402,829.72853 0,-63.22045"
       id="path4460-50-2-9"
       inkscape:connector-curvature="0" />
    <path
       style="fill:none;fill-rule:evenodd;stroke:#000000;stroke-width:1.5;stroke-linecap:butt;stroke-linejoin:miter;stroke-miterlimit:4;stroke-dasharray:none;stroke-opacity:1;marker-start:url(#Arrow1Mstart-8-7-1-6)"
       d="m 80.98402,935.93416 0,-63.22045"
       id="path4460-50-2-9-4"
       inkscape:connector-curvature="0" />
    <path
       style="fill:none;fill-rule:evenodd;stroke:#000000;stroke-width:1.5;stroke-linecap:butt;stroke-linejoin:miter;stroke-miterlimit:4;stroke-dasharray:none;stroke-opacity:1;marker-start:url(#Arrow1Mstart-8-7-1-4);marker-end:url(#Arrow1Mend)"
       d="m 241.28857,826.98852 0,-63.22045"
       id="path4460-50-2-9-5"
       inkscape:connector-curvature="0" />
    <path
       style="fill:none;fill-rule:evenodd;stroke:#000000;stroke-width:1.5;stroke-linecap:butt;stroke-linejoin:miter;stroke-miterlimit:4;stroke-dasharray:none;stroke-opacity:1;marker-start:url(#Arrow1Mstart-8-7-1-69)"
       d="m 241.28857,935.91417 0,-63.22045"
       id="path4460-50-2-9-0"
       inkscape:connector-curvature="0" />
    <path
       style="fill:none;fill-rule:evenodd;stroke:#000000;stroke-width:1.5;stroke-linecap:butt;stroke-linejoin:miter;stroke-miterlimit:4;stroke-dasharray:none;stroke-opacity:1;marker-start:url(#Arrow1Mstart-8-7-1-69-8)"
       d="m 263.12443,935.91417 0,-174.09146"
       id="path4460-50-2-9-0-9"
       inkscape:connector-curvature="0" />
    <path
       style="fill:none;fill-rule:evenodd;stroke:#000000;stroke-width:1.5;stroke-linecap:butt;stroke-linejoin:miter;stroke-miterlimit:4;stroke-dasharray:none;stroke-opacity:1;marker-start:url(#Arrow1Mstart-8-7-1-69-8-6)"
       d="m 59.94164,935.93416 0,-174.09146"
       id="path4460-50-2-9-0-9-1"
       inkscape:connector-curvature="0" />
    <g
       id="g5133"
       transform="matrix(4,0,0,-4,-374.37143,3599.4343)"
       xml:space="preserve"
       stroke-miterlimit="10.433"
       font-style="normal"
       font-variant="normal"
       font-weight="normal"
       font-stretch="normal"
       font-size-adjust="none"
       letter-spacing="normal"
       word-spacing="normal"
       ns0:text="$\\bar{\\bm{x}}^*$"
       ns0:preamble="C:\\Users\\Daniel\\AppData\\Roaming\\inkscape\\extensions\\default_packages.tex"
       style="font-style:normal;font-variant:normal;font-weight:normal;font-stretch:normal;letter-spacing:normal;word-spacing:normal;text-anchor:start;fill:#000000;fill-opacity:1;fill-rule:evenodd;stroke:#000000;stroke-linecap:butt;stroke-linejoin:miter;stroke-miterlimit:10.43299961;stroke-dasharray:none;stroke-dashoffset:0;stroke-opacity:1"><polygon
         points="154.11,663.23 150.51,663.23 150.51,662.93 154.11,662.93 "
         font-size-adjust="none"
         font-stretch="normal"
         font-style="normal"
         font-variant="normal"
         font-weight="normal"
         letter-spacing="normal"
         stroke-miterlimit="10.433"
         word-spacing="normal"
         style="font-style:normal;font-variant:normal;font-weight:normal;font-stretch:normal;letter-spacing:normal;word-spacing:normal;text-anchor:start;fill:#000000;fill-opacity:1;fill-rule:evenodd;stroke:#000000;stroke-width:0;stroke-linecap:butt;stroke-linejoin:miter;stroke-miterlimit:10.43299961;stroke-dasharray:none;stroke-dashoffset:0;stroke-opacity:1"
         id="polygon5127" /><path
         inkscape:connector-curvature="0"
         d="m 154.06,661.22 -0.04,-0.01 -0.03,-0.01 -0.03,-0.02 -0.03,-0.01 -0.03,-0.01 -0.03,-0.02 -0.02,-0.02 -0.03,-0.02 -0.02,-0.01 -0.03,-0.02 -0.02,-0.03 -0.02,-0.02 -0.02,-0.02 -0.02,-0.02 -0.02,-0.02 -0.02,-0.03 -0.01,-0.02 -0.02,-0.03 -0.01,-0.02 -0.02,-0.03 -0.01,-0.02 -0.01,-0.03 -0.01,-0.02 -0.01,-0.03 -0.01,-0.02 v -0.03 l -0.01,-0.03 v -0.02 l -0.01,-0.03 v -0.02 -0.02 -0.03 c 0,-0.21 0.17,-0.45 0.5,-0.45 0.35,0 0.72,0.28 0.72,0.77 0,0.53 -0.53,0.87 -1.14,0.87 -0.57,0 -0.94,-0.42 -1.07,-0.6 -0.25,0.42 -0.81,0.6 -1.38,0.6 -1.25,0 -1.93,-1.22 -1.93,-1.54 0,-0.14 0.15,-0.14 0.24,-0.14 0.12,0 0.19,0 0.23,0.13 0.29,0.9 1.01,1.2 1.41,1.2 0.38,0 0.56,-0.18 0.56,-0.5 0,-0.19 -0.14,-0.73 -0.23,-1.09 l -0.33,-1.36 c -0.15,-0.61 -0.51,-0.91 -0.85,-0.91 -0.05,0 -0.28,0 -0.48,0.15 0.36,0.1 0.54,0.44 0.54,0.69 0,0.22 -0.17,0.45 -0.5,0.45 -0.35,0 -0.72,-0.28 -0.72,-0.77 0,-0.53 0.53,-0.87 1.14,-0.87 0.57,0 0.93,0.42 1.06,0.6 0.25,-0.42 0.81,-0.6 1.38,-0.6 1.26,0 1.93,1.22 1.93,1.55 0,0.13 -0.14,0.13 -0.23,0.13 -0.12,0 -0.19,0 -0.23,-0.12 -0.29,-0.91 -1.01,-1.21 -1.42,-1.21 -0.38,0 -0.56,0.18 -0.56,0.5 0,0.21 0.13,0.73 0.22,1.1 0.07,0.26 0.3,1.19 0.35,1.35 0.15,0.6 0.5,0.91 0.85,0.91 0.05,0 0.28,0 0.48,-0.15 z"
         font-size-adjust="none"
         font-stretch="normal"
         font-style="normal"
         font-variant="normal"
         font-weight="normal"
         letter-spacing="normal"
         stroke-miterlimit="10.433"
         word-spacing="normal"
         style="font-style:normal;font-variant:normal;font-weight:normal;font-stretch:normal;letter-spacing:normal;word-spacing:normal;text-anchor:start;fill:#000000;fill-opacity:1;fill-rule:evenodd;stroke:#000000;stroke-width:0;stroke-linecap:butt;stroke-linejoin:miter;stroke-miterlimit:10.43299961;stroke-dasharray:none;stroke-dashoffset:0;stroke-opacity:1"
         id="path5129" /><path
         inkscape:connector-curvature="0"
         d="m 157.54,662.58 0.05,0.03 0.05,0.02 0.05,0.02 0.05,0.02 0.04,0.02 0.05,0.02 0.04,0.02 0.04,0.01 0.04,0.02 0.04,0.02 0.04,0.01 0.03,0.02 0.03,0.01 0.04,0.01 0.03,0.02 0.03,0.01 0.03,0.01 0.03,0.01 0.02,0.02 0.03,0.01 0.02,0.01 0.03,0.01 0.02,0.01 0.02,0.01 0.02,0.01 h 0.02 l 0.04,0.02 0.04,0.02 0.03,0.01 c 0.14,0.06 0.2,0.09 0.2,0.22 0,0.12 -0.09,0.22 -0.22,0.22 -0.05,0 -0.06,0 -0.14,-0.06 l -0.95,-0.63 0.1,1.03 c 0.01,0.12 0,0.3 -0.21,0.3 -0.08,0 -0.22,-0.06 -0.22,-0.21 0,-0.07 0.03,-0.28 0.04,-0.35 0.01,-0.11 0.06,-0.61 0.07,-0.77 l -0.94,0.63 c -0.07,0.04 -0.09,0.06 -0.15,0.06 -0.13,0 -0.22,-0.1 -0.22,-0.22 0,-0.14 0.08,-0.18 0.15,-0.2 l 1.05,-0.44 c -0.57,-0.25 -0.83,-0.35 -1,-0.43 -0.14,-0.06 -0.2,-0.08 -0.2,-0.22 0,-0.11 0.09,-0.22 0.22,-0.22 0.05,0 0.06,0 0.14,0.06 l 0.95,0.64 -0.11,-1.12 c 0,-0.16 0.14,-0.21 0.22,-0.21 0.08,0 0.22,0.05 0.22,0.21 0,0.06 -0.03,0.27 -0.04,0.34 -0.01,0.12 -0.06,0.62 -0.07,0.78 l 0.83,-0.56 c 0.19,-0.14 0.2,-0.14 0.26,-0.14 0.13,0 0.22,0.11 0.22,0.22 0,0.14 -0.09,0.18 -0.15,0.2 z"
         font-size-adjust="none"
         font-stretch="normal"
         font-style="normal"
         font-variant="normal"
         font-weight="normal"
         letter-spacing="normal"
         stroke-miterlimit="10.433"
         word-spacing="normal"
         style="font-style:normal;font-variant:normal;font-weight:normal;font-stretch:normal;letter-spacing:normal;word-spacing:normal;text-anchor:start;fill:#000000;fill-opacity:1;fill-rule:evenodd;stroke:#000000;stroke-width:0;stroke-linecap:butt;stroke-linejoin:miter;stroke-miterlimit:10.43299961;stroke-dasharray:none;stroke-dashoffset:0;stroke-opacity:1"
         id="path5131" /></g>    <g
       style="font-style:normal;font-variant:normal;font-weight:normal;font-stretch:normal;letter-spacing:normal;word-spacing:normal;text-anchor:start;fill:#000000;fill-opacity:1;fill-rule:evenodd;stroke:#000000;stroke-linecap:butt;stroke-linejoin:miter;stroke-miterlimit:10.43299961;stroke-dasharray:none;stroke-dashoffset:0;stroke-opacity:1"
       ns0:preamble="C:\\Users\\Daniel\\AppData\\Roaming\\inkscape\\extensions\\default_packages.tex"
       ns0:text="$\\bm{x}^*$"
       word-spacing="normal"
       letter-spacing="normal"
       font-size-adjust="none"
       font-stretch="normal"
       font-weight="normal"
       font-variant="normal"
       font-style="normal"
       stroke-miterlimit="10.433"
       xml:space="preserve"
       transform="matrix(4,0,0,-4,-534.67598,3599.4143)"
       id="g5413"><path
         id="path5409"
         style="font-style:normal;font-variant:normal;font-weight:normal;font-stretch:normal;letter-spacing:normal;word-spacing:normal;text-anchor:start;fill:#000000;fill-opacity:1;fill-rule:evenodd;stroke:#000000;stroke-width:0;stroke-linecap:butt;stroke-linejoin:miter;stroke-miterlimit:10.43299961;stroke-dasharray:none;stroke-dashoffset:0;stroke-opacity:1"
         word-spacing="normal"
         stroke-miterlimit="10.433"
         letter-spacing="normal"
         font-weight="normal"
         font-variant="normal"
         font-style="normal"
         font-stretch="normal"
         font-size-adjust="none"
         d="m 154.06,661.22 -0.04,-0.01 -0.03,-0.01 -0.03,-0.02 -0.03,-0.01 -0.03,-0.01 -0.03,-0.02 -0.02,-0.02 -0.03,-0.02 -0.02,-0.01 -0.03,-0.02 -0.02,-0.03 -0.02,-0.02 -0.02,-0.02 -0.02,-0.02 -0.02,-0.02 -0.02,-0.03 -0.01,-0.02 -0.02,-0.03 -0.01,-0.02 -0.02,-0.03 -0.01,-0.02 -0.01,-0.03 -0.01,-0.02 -0.01,-0.03 -0.01,-0.02 v -0.03 l -0.01,-0.03 v -0.02 l -0.01,-0.03 v -0.02 -0.02 -0.03 c 0,-0.22 0.17,-0.45 0.5,-0.45 0.35,0 0.72,0.28 0.72,0.77 0,0.53 -0.53,0.87 -1.14,0.87 -0.57,0 -0.94,-0.42 -1.07,-0.6 -0.25,0.42 -0.81,0.6 -1.38,0.6 -1.25,0 -1.93,-1.22 -1.93,-1.55 0,-0.13 0.15,-0.13 0.24,-0.13 0.12,0 0.19,0 0.23,0.12 0.29,0.91 1.01,1.21 1.41,1.21 0.38,0 0.56,-0.18 0.56,-0.5 0,-0.19 -0.14,-0.73 -0.23,-1.09 l -0.33,-1.36 c -0.15,-0.61 -0.51,-0.91 -0.85,-0.91 -0.05,0 -0.28,0 -0.48,0.15 0.36,0.1 0.54,0.44 0.54,0.69 0,0.22 -0.17,0.45 -0.5,0.45 -0.35,0 -0.72,-0.28 -0.72,-0.77 0,-0.53 0.53,-0.87 1.14,-0.87 0.57,0 0.93,0.42 1.06,0.6 0.25,-0.42 0.81,-0.6 1.38,-0.6 1.26,0 1.93,1.22 1.93,1.55 0,0.13 -0.14,0.13 -0.23,0.13 -0.12,0 -0.19,0 -0.23,-0.12 -0.29,-0.91 -1.01,-1.21 -1.42,-1.21 -0.38,0 -0.56,0.18 -0.56,0.5 0,0.21 0.13,0.73 0.22,1.1 0.07,0.26 0.3,1.19 0.35,1.35 0.15,0.6 0.5,0.91 0.85,0.91 0.05,0 0.28,0 0.48,-0.15 z"
         inkscape:connector-curvature="0" /><path
         id="path5411"
         style="font-style:normal;font-variant:normal;font-weight:normal;font-stretch:normal;letter-spacing:normal;word-spacing:normal;text-anchor:start;fill:#000000;fill-opacity:1;fill-rule:evenodd;stroke:#000000;stroke-width:0;stroke-linecap:butt;stroke-linejoin:miter;stroke-miterlimit:10.43299961;stroke-dasharray:none;stroke-dashoffset:0;stroke-opacity:1"
         word-spacing="normal"
         stroke-miterlimit="10.433"
         letter-spacing="normal"
         font-weight="normal"
         font-variant="normal"
         font-style="normal"
         font-stretch="normal"
         font-size-adjust="none"
         d="m 157.54,662.58 0.05,0.03 0.05,0.02 0.05,0.02 0.05,0.02 0.04,0.02 0.05,0.02 0.04,0.02 0.04,0.01 0.04,0.02 0.04,0.02 0.04,0.01 0.03,0.02 0.03,0.01 0.04,0.01 0.03,0.02 0.03,0.01 0.03,0.01 0.03,0.01 0.02,0.02 0.03,0.01 0.02,0.01 0.03,0.01 0.02,0.01 0.02,0.01 0.02,0.01 h 0.02 l 0.04,0.02 0.04,0.02 0.03,0.01 c 0.14,0.06 0.2,0.09 0.2,0.22 0,0.12 -0.09,0.22 -0.22,0.22 -0.05,0 -0.06,0 -0.14,-0.06 l -0.95,-0.63 0.1,1.03 c 0.01,0.12 0,0.29 -0.21,0.29 -0.08,0 -0.22,-0.05 -0.22,-0.2 0,-0.07 0.03,-0.28 0.04,-0.35 0.01,-0.11 0.06,-0.61 0.07,-0.77 l -0.94,0.63 c -0.07,0.04 -0.09,0.06 -0.15,0.06 -0.13,0 -0.22,-0.1 -0.22,-0.22 0,-0.14 0.08,-0.18 0.15,-0.2 l 1.05,-0.44 c -0.57,-0.25 -0.83,-0.35 -1,-0.43 -0.14,-0.06 -0.2,-0.08 -0.2,-0.22 0,-0.12 0.09,-0.22 0.22,-0.22 0.05,0 0.06,0 0.14,0.06 l 0.95,0.64 -0.11,-1.12 c 0,-0.16 0.14,-0.21 0.22,-0.21 0.08,0 0.22,0.05 0.22,0.21 0,0.06 -0.03,0.27 -0.04,0.34 -0.01,0.12 -0.06,0.62 -0.07,0.78 l 0.83,-0.56 c 0.19,-0.14 0.2,-0.14 0.26,-0.14 0.13,0 0.22,0.1 0.22,0.22 0,0.14 -0.09,0.18 -0.15,0.2 z"
         inkscape:connector-curvature="0" /></g>  </g>
</svg>
