<svg width="43.076mm" height="28.772mm" version="1.1" viewBox="0 0 43.075954 28.772173" xmlns="http://www.w3.org/2000/svg" xmlns:xlink="http://www.w3.org/1999/xlink">
<defs>
<symbol id="e" overflow="visible">
<path d="m1.9062-2.2344h1.2969c1.0625 0 2.125-0.875 2.125-1.8438 0-0.70312-0.59375-1.2812-1.5156-1.2812h-1.9219l-1.1562 5.3594h0.6875zm0.54688-2.6875h1.0938c0.6875 0 1.1562 0.32812 1.1562 0.90625 0 0.60938-0.57812 1.3438-1.6406 1.3438h-1.0938z"/>
</symbol>
<symbol id="a" overflow="visible">
<path d="m2.5625-5.3594h-0.6875l-1.1562 5.3594h3.1406l0.09375-0.51562c-0.6875 0.015625-1.375 0.015625-2.0625 0.015625h-0.375z"/>
</symbol>
<symbol id="b" overflow="visible">
<path d="m3.7656-2.5156c1.0938-0.29688 1.6406-1.0312 1.6406-1.625 0-0.6875-0.6875-1.2188-1.6562-1.2188h-1.8594l-1.1562 5.3594h0.67188l0.51562-2.4531h1.2344l0.92188 2.4531h0.6875zm-1.3125-2.4062h1.1094c0.875 0 1.2188 0.40625 1.2188 0.82812 0 0.53125-0.54688 1.1719-1.6406 1.1719h-1.125z"/>
</symbol>
<symbol id="d" overflow="visible">
<path d="m4-4.8125h0.6875 0.28125 1.0156l0.10938-0.5h-4.6875l-0.10938 0.5h1.0469 0.26562 0.70312l-1.0312 4.8125h0.6875z"/>
</symbol>
<clipPath id="c">
<path d="m468 72.004h8v41.996h-8z"/>
</clipPath>
<clipPath id="p">
<path d="m501.43 98.672h4.9648v5.707h-4.9648z"/>
</clipPath>
<clipPath id="o">
<path d="m509 123h11.562v12h-11.562z"/>
</clipPath>
<clipPath id="n">
<path d="m512.79 126h3.5273v5.7266h-3.5273z"/>
</clipPath>
<clipPath id="m">
<path d="m496.72 117.01h3.5664v5.8203h-3.5664z"/>
</clipPath>
<clipPath id="l">
<path d="m499.17 134.6h3.5274v5.7461h-3.5274z"/>
</clipPath>
<clipPath id="k">
<path d="m481 139.51h4.8398v5.75h-4.8398z"/>
</clipPath>
<clipPath id="j">
<path d="m481 124.36h4.8398v5.6406h-4.8398z"/>
</clipPath>
<clipPath id="i">
<path d="m509 106h11.562v12h-11.562z"/>
</clipPath>
<clipPath id="h">
<path d="m512.01 109.51h4.9453v5.6992h-4.9453z"/>
</clipPath>
<clipPath id="g">
<g transform="matrix(.39609 0 0 .34926 -34.564 1.4927)" clip-path="url(#c)" fill="#69ffff">
<path d="m468.22 72.977h7.0898v40.281h-7.0898z" fill="#69ffff"/>
</g>
</clipPath>
<clipPath id="f">
<g transform="matrix(.39609 0 0 .34926 -34.564 1.4927)" clip-path="url(#c)" fill="#69ffff">
<path d="m468.22 72.977h7.0898v40.281h-7.0898z" fill="#69ffff"/>
</g>
</clipPath>
</defs>
<g transform="translate(-131.17 -38.552)">
<g transform="translate(2.2555 10.542)" stroke="#000" stroke-linecap="round" stroke-linejoin="round" stroke-miterlimit="10" stroke-width=".39201">
<path d="m143.27 30.073h7.2278v7.8879h-7.2278z" fill="#4f4f4f"/>
<g transform="translate(.012565 -.37138)" clip-path="url(#g)">
<path d="m154.05 28.579h-2.7258v11.618h2.7258z" fill="#fff"/>
<g fill="none">
<path d="m153.94 31.724-2.5011-2.989"/>
<path d="m153.94 33.419-2.5011-2.989"/>
<path d="m153.94 36.807-2.5011-2.989"/>
<path d="m153.94 38.502-2.5011-2.989"/>
<path d="m153.94 35.114-2.5011-2.9903"/>
<path d="m153.94 40.197-2.5011-2.989"/>
<path d="m155.29 31.568-2.5011-2.989"/>
<path d="m152.76 40.182-1.4084-1.582"/>
</g>
</g>
<g transform="matrix(-1 0 0 1 293.75 -.37138)" clip-path="url(#f)">
<path d="m154.05 28.579h-2.7258v11.618h2.7258z" fill="#fff"/>
<g fill="none">
<path d="m153.94 31.724-2.5011-2.989"/>
<path d="m153.94 33.419-2.5011-2.989"/>
<path d="m153.94 36.807-2.5011-2.989"/>
<path d="m153.94 38.502-2.5011-2.989"/>
<path d="m153.94 35.114-2.5011-2.9903"/>
<path d="m153.94 40.197-2.5011-2.989"/>
<path d="m155.29 31.568-2.5011-2.989"/>
<path d="m152.76 40.182-1.4084-1.582"/>
</g>
</g>
</g>
<path d="m149.11 59.675-6.6435-4.1424 6.6683-9.4713zm0 0" fill="#919191" stroke="#000" stroke-linecap="round" stroke-linejoin="round" stroke-miterlimit="10" stroke-width=".098002"/>
<g fill="#fff" stroke="#000" stroke-linecap="round" stroke-linejoin="round" stroke-miterlimit="10" stroke-width=".39201">
<path d="m132.63 65.856h1.7639c0.88194 0 1.7639-0.44097 1.7639-1.7639s-0.88195-1.7639-1.7639-1.7639h-1.7639z"/>
<path d="m132.63 59.739h1.7639c0.88194 0 1.7639-0.44097 1.7639-1.7639 0-1.3229-0.88195-1.7639-1.7639-1.7639h-1.7639z"/>
<path d="m134.89 63.594c0.27423 0.27561 0.27423 0.72071 0 0.99632-0.27561 0.27561-0.7221 0.27561-0.99633 0-0.2756-0.27561-0.2756-0.72071 0-0.99632 0.27423-0.27423 0.72072-0.27423 0.99633 0"/>
<path d="m134.89 57.478c0.27423 0.27423 0.27423 0.72071 0 0.99632-0.27561 0.27423-0.7221 0.27423-0.99633 0-0.2756-0.27561-0.2756-0.72209 0-0.99632 0.27423-0.27561 0.72072-0.27561 0.99633 0"/>
<path d="m143.63 65.289c0.27423 0.27423 0.27423 0.72071 0 0.99632-0.27561 0.27423-0.72072 0.27423-0.99632 0-0.27561-0.27561-0.27561-0.72209 0-0.99632 0.2756-0.27561 0.72071-0.27561 0.99632 0"/>
</g>
<g fill="none" stroke="#000" stroke-linecap="round" stroke-linejoin="round" stroke-miterlimit="10" stroke-width=".39201">
<path d="m141.56 55.855-6.3031 1.8659"/>
<path d="m148.5 60.373-4.7349 4.7735"/>
<path d="m142.25 65.615-6.9701-1.3519"/>
</g>
<g fill="#fff" stroke="#000" stroke-linecap="round" stroke-linejoin="round" stroke-miterlimit="10" stroke-width=".39201">
<path d="m149.63 45.547c0.27423 0.27423 0.27423 0.72071 0 0.99494-0.27561 0.27561-0.72071 0.27561-0.99632 0-0.27561-0.27423-0.27561-0.72071 0-0.99494 0.27561-0.27561 0.72071-0.27561 0.99632 0"/>
<path d="m149.63 59.235c0.27423 0.27561 0.27423 0.72209 0 0.99632-0.27561 0.27561-0.72071 0.27561-0.99632 0-0.27561-0.27423-0.27561-0.72071 0-0.99632 0.27561-0.27423 0.72071-0.27423 0.99632 0"/>
<path d="m142.92 55.101c0.27423 0.27423 0.27423 0.72071 0 0.99632-0.2756 0.27423-0.72209 0.27423-0.99632 0-0.2756-0.27561-0.2756-0.72209 0-0.99632 0.27423-0.27561 0.72072-0.27561 0.99632 0"/>
</g>
<g fill="none" stroke="#000" stroke-linecap="round" stroke-linejoin="round" stroke-miterlimit="10" stroke-width=".39201">
<path d="m148.62 46.782-5.6761 8.0808"/>
<path d="m148.37 59.261-5.1773-3.1902"/>
<path d="m149.13 46.944v11.888"/>
<path d="m131.37 57.62 1.1782-1.4084"/>
<path d="m131.37 61.01 1.1782-1.4084"/>
<path d="m131.37 59.315 1.1782-1.4084"/>
<path d="m131.37 63.737 1.1782-1.4084"/>
<path d="m131.37 67.126 1.1782-1.4084"/>
<path d="m131.37 65.432 1.1782-1.4097"/>
<path d="m164.89 54.929-1.7956 0.88746"/>
<path d="m165.6 60.824-2.373 0.65181"/>
<path d="m170.65 58.281-1.5007 0.99356"/>
<path d="m170.52 52.222-2.096 1.0101"/>
<path d="m170.92 49.97-0.99219-1.0156"/>
<path d="m172.3 53.332 6e-3 1.9072"/>
</g>
<path d="m169.81 46.305c0.68765 0.68902 0.68765 1.8052 0 2.4942-0.68901 0.68902-1.8066 0.68902-2.4956 0-0.68902-0.68902-0.68902-1.8052 0-2.4942 0.68902-0.68902 1.8066-0.68902 2.4956 0" fill="#fff" stroke="#000" stroke-linecap="round" stroke-linejoin="round" stroke-miterlimit="10" stroke-width=".39201"/>
<g transform="matrix(.35278 0 0 .35278 -9.2668 11.709)" clip-path="url(#p)">
<g>
<use x="500.88849" y="104.24178" width="100%" height="100%" xlink:href="#e"/>
</g>
</g>
<path d="m173.54 55.951c0.68902 0.68902 0.68902 1.8066 0 2.4956-0.68901 0.68902-1.8066 0.68902-2.4956 0-0.68763-0.68902-0.68763-1.8066 0-2.4956 0.68903-0.68764 1.8066-0.68764 2.4956 0" fill="#fff"/>
<g transform="matrix(.35278 0 0 .35278 -9.2668 11.709)" clip-path="url(#o)">
<path transform="matrix(.2778 0 0 .2778 391.8 65.754)" d="m454.93 214.75c7.0307 7.0307 7.0307 18.434 0 25.465-7.0307 7.0307-18.434 7.0307-25.465 0-7.0166-7.0307-7.0166-18.434 0-25.465 7.0307-7.0166 18.434-7.0166 25.465 0" fill="none" stroke="#000" stroke-linecap="round" stroke-linejoin="round" stroke-miterlimit="10" stroke-width="4"/>
</g>
<g transform="matrix(.35278 0 0 .35278 -9.2668 11.709)" clip-path="url(#n)">
<g>
<use x="512.26556" y="131.46619" width="100%" height="100%" xlink:href="#a"/>
</g>
</g>
<path d="m167.9 52.813c0.68902 0.68902 0.68902 1.8052 0 2.4942-0.68902 0.68902-1.8066 0.68902-2.4942 0-0.68902-0.68902-0.68902-1.8052 0-2.4942 0.68764-0.68902 1.8052-0.68902 2.4942 0" fill="#fff" stroke="#000" stroke-linecap="round" stroke-linejoin="round" stroke-miterlimit="10" stroke-width=".39201"/>
<g transform="matrix(.35278 0 0 .35278 -9.2668 11.709)" clip-path="url(#m)">
<g>
<use x="496.15317" y="122.57658" width="100%" height="100%" xlink:href="#a"/>
</g>
</g>
<path d="m168.73 59.059c0.68902 0.68764 0.68902 1.8052 0 2.4942s-1.8052 0.68902-2.4942 0-0.68902-1.8066 0-2.4942c0.68902-0.68902 1.8052-0.68902 2.4942 0" fill="#fff" stroke="#000" stroke-linecap="round" stroke-linejoin="round" stroke-miterlimit="10" stroke-width=".39201"/>
<g transform="matrix(.35278 0 0 .35278 -9.2668 11.709)" clip-path="url(#l)">
<g>
<use x="498.65335" y="140.07799" width="100%" height="100%" xlink:href="#a"/>
</g>
</g>
<path d="m162.57 60.726c0.68902 0.68764 0.68902 1.8052 0 2.4942-0.68902 0.68902-1.8052 0.68902-2.4942 0-0.68902-0.68902-0.68902-1.8066 0-2.4942 0.68902-0.68902 1.8052-0.68902 2.4942 0" fill="#fff" stroke="#000" stroke-linecap="round" stroke-linejoin="round" stroke-miterlimit="10" stroke-width=".39201"/>
<g transform="matrix(.35278 0 0 .35278 -9.2668 11.709)" clip-path="url(#k)">
<g>
<use x="480.30444" y="145.07838" width="100%" height="100%" xlink:href="#b"/>
</g>
</g>
<path d="m162.57 55.411c0.68902 0.68902 0.68902 1.8066 0 2.4942-0.68902 0.68902-1.8052 0.68902-2.4942 0-0.68902-0.68764-0.68902-1.8052 0-2.4942 0.68902-0.68902 1.8052-0.68902 2.4942 0" fill="#fff" stroke="#000" stroke-linecap="round" stroke-linejoin="round" stroke-miterlimit="10" stroke-width=".39201"/>
<g transform="matrix(.35278 0 0 .35278 -9.2668 11.709)" clip-path="url(#j)">
<g>
<use x="480.30444" y="129.79938" width="100%" height="100%" xlink:href="#b"/>
</g>
</g>
<path d="m173.54 50.125c0.68902 0.68902 0.68902 1.8052 0 2.4942-0.68901 0.68902-1.8066 0.68902-2.4956 0-0.68763-0.68902-0.68763-1.8052 0-2.4942 0.68903-0.68902 1.8066-0.68902 2.4956 0" fill="#fff"/>
<g transform="matrix(.35278 0 0 .35278 -9.2668 11.709)" clip-path="url(#i)">
<path transform="matrix(.2778 0 0 .2778 391.8 65.754)" d="m454.93 155.29c7.0307 7.0307 7.0307 18.42 0 25.451-7.0307 7.0307-18.434 7.0307-25.465 0-7.0166-7.0307-7.0166-18.42 0-25.451 7.0307-7.0307 18.434-7.0307 25.465 0" fill="none" stroke="#000" stroke-linecap="round" stroke-linejoin="round" stroke-miterlimit="10" stroke-width="4"/>
</g>
<g transform="matrix(.35278 0 0 .35278 -9.2668 11.709)" clip-path="url(#h)">
<g>
<use x="510.65848" y="115.07599" width="100%" height="100%" xlink:href="#d"/>
</g>
</g>
<g fill="none" stroke="#000" stroke-miterlimit="10" stroke-width=".49001">
<path d="m156.46 53.23h2.3027" stroke-linecap="round" stroke-linejoin="round"/>
<path d="m159.47 53.23-0.70555-0.26458v0.52917z"/>
<path d="m155.75 53.23 0.70556 0.26458v-0.52917z"/>
</g>
</g>
</svg>
