<svg width="42.49mm" height="19.913mm" version="1.1" viewBox="0 0 42.490467 19.912989" xmlns="http://www.w3.org/2000/svg" xmlns:xlink="http://www.w3.org/1999/xlink">
<defs>
<symbol id="e" overflow="visible">
<path d="m1.9688-2.3125h1.3438c1.1094 0 2.2031-0.90625 2.2031-1.9062 0-0.73438-0.60938-1.3281-1.5781-1.3281h-1.9844l-1.1875 5.5469h0.71875zm0.57812-2.7969h1.125c0.71875 0 1.2031 0.34375 1.2031 0.9375 0 0.64062-0.59375 1.3906-1.7031 1.3906h-1.125z"/>
</symbol>
<symbol id="d" overflow="visible">
<path d="m5.8438-5.25c-0.5-0.29688-0.92188-0.39062-1.4844-0.39062-1.6562 0-3.3125 1.6094-3.3125 3.5938 0 1.0312 0.6875 2.1406 2.0781 2.1406 0.67188 0 1.3594-0.21875 1.7344-0.40625l0.4375-2.0781h-1.6875l-0.09375 0.5h1.0625c-0.09375 0.42188-0.1875 0.85938-0.28125 1.2969-0.34375 0.10938-0.70312 0.15625-1.0625 0.15625-0.98438 0-1.4688-0.8125-1.4688-1.7188 0-1.5156 1.2031-2.9688 2.4375-2.9688 0.6875 0 1.0312 0.20312 1.3906 0.53125z"/>
</symbol>
<symbol id="c" overflow="visible">
<path d="m2.0312-2.625h2.625l0.10938-0.5h-2.6406l0.40625-1.8906h1.0938 0.29688 1.4688l0.10938-0.51562h-3.5781l-1.1719 5.5312h3.6875l0.10938-0.5625h-1-0.29688-1.6719z"/>
</symbol>
<symbol id="a" overflow="visible">
<path d="m7.375-5.5469h-0.92188l-1.625 2.7344c-0.57812 0.98438-1.0625 1.7812-1.1719 2.0625-0.03125-0.51562-0.17188-1.3281-0.26562-1.8906l-0.5-2.9062h-0.90625l-1.1875 5.5469h0.625l1.0625-4.9531c0.015625 0.5 0.17188 1.4062 0.26562 1.9688l0.48438 2.8125h0.57812l1.5938-2.6719c0.67188-1.1406 0.70312-1.2031 0.95312-1.625l0.26562-0.48438-1.0625 4.9531h0.625z"/>
</symbol>
<symbol id="b" overflow="visible">
<path d="m6.4062-5.5469h-0.625l-1.6406 2.7031c-1.1719 1.9688-1.2656 2.1875-1.2969 2.2656 0-0.17188 0-0.21875-0.10938-0.90625-0.046875-0.32812-0.09375-0.65625-0.15625-0.96875l-0.54688-3.0938h-0.75l1.0156 5.5469h0.73438z"/>
</symbol>
<clipPath id="n">
<path d="m354 123h12.625v13h-12.625z"/>
</clipPath>
<clipPath id="m">
<path d="m354 143h12.625v12h-12.625z"/>
</clipPath>
<clipPath id="l">
<path d="m338.73 146.07h5.1406v5.9336h-5.1406z"/>
</clipPath>
<clipPath id="k">
<path d="m338.73 126.5h5.1406v5.9766h-5.1406z"/>
</clipPath>
<clipPath id="j">
<path d="m245.51 136.57h23.867v16.59h-23.867z"/>
</clipPath>
<clipPath id="i">
<path d="m321.41 146.07h5.0859v5.9336h-5.0859z"/>
</clipPath>
<clipPath id="h">
<path d="m356.88 126.5h6.8672v5.9766h-6.8672z"/>
</clipPath>
<clipPath id="g">
<path d="m356.88 146.07h6.8672v5.9336h-6.8672z"/>
</clipPath>
<clipPath id="f">
<path d="m338.73 107.14h5.1406v5.8594h-5.1406z"/>
</clipPath>
</defs>
<g transform="translate(-74.122 -30.46)">
<g stroke="#000" stroke-linecap="round" stroke-linejoin="round" stroke-miterlimit="10" stroke-width=".4064">
<path d="m82.109 46.155h2.457v0.55397h-2.457z"/>
<path d="m83.946 48.261h3.6573v0.53606h-3.6573z"/>
<path d="m83.946 44.067h3.6573v0.53606h-3.6573z"/>
</g>
<g fill="none" stroke="#000" stroke-linecap="round" stroke-linejoin="round" stroke-miterlimit="10">
<path d="m88.819 47.347v-1.8287c0-0.50574 0.40928-0.91502 0.91502-0.91502h4.9375v3.6573h-4.9375c-0.50574 0-0.91502-0.40928-0.91502-0.91364z" stroke-width=".4064"/>
<g stroke-width=".3048">
<path d="m90.202 45.547h3.0854-0.08682"/>
<path d="m90.202 46.101h3.0854-0.08682"/>
<path d="m90.202 46.654h3.0854-0.08682"/>
<path d="m90.202 47.206h3.0854-0.08682"/>
</g>
</g>
<path d="m86.362 46.155h2.457v0.55397h-2.457zm0 0" stroke="#000" stroke-linecap="round" stroke-linejoin="round" stroke-miterlimit="10" stroke-width=".4064"/>
<g fill="none" stroke="#000" stroke-linecap="round" stroke-linejoin="round" stroke-miterlimit="10">
<path d="m88.819 40.787v-1.8287c0-0.50436 0.40928-0.91364 0.91502-0.91364h4.9375v3.6573h-4.9375c-0.50574 0-0.91502-0.40928-0.91502-0.91502z" stroke-width=".4064"/>
<g stroke-width=".3048">
<path d="m90.202 38.989h3.0854-0.08682"/>
<path d="m90.202 39.542h3.0854-0.08682"/>
<path d="m90.202 40.096h3.0854-0.08682"/>
<path d="m90.202 40.648h3.0854-0.08682"/>
</g>
</g>
<g stroke="#000" stroke-linecap="round" stroke-linejoin="round" stroke-miterlimit="10">
<path d="m86.362 39.597h2.457v0.55259h-2.457z" stroke-width=".4064"/>
<path d="m75.698 33.947h22.505v1.006h-22.505z" fill="#fff" stroke-width=".4064"/>
<path d="m87.865 42.645h-1.8287v7.5737h1.8287z" fill="#fff" stroke-width=".3048"/>
</g>
<g fill="none" stroke="#000" stroke-linecap="round" stroke-linejoin="round" stroke-miterlimit="10" stroke-width=".3048">
<path d="m87.789 44.696-1.6771-1.9485"/>
<path d="m87.789 45.801-1.6771-1.9485"/>
<path d="m87.789 48.01-1.6771-1.9485"/>
<path d="m87.789 49.114-1.6771-1.9485"/>
<path d="m87.789 46.905-1.6771-1.9485"/>
<path d="m87.789 50.219-1.6771-1.9485"/>
<path d="m87.865 43.775-0.94533-1.13"/>
<path d="m87 50.209-0.94533-1.0308"/>
</g>
<path d="m109.17 39.164c0.71383 0.7152 0.71383 1.8728 0 2.5866-0.7152 0.71382-1.8728 0.71382-2.5866 0-0.71383-0.71382-0.71383-1.8714 0-2.5866 0.71382-0.71382 1.8714-0.71382 2.5866 0" fill="#fff" stroke="#000" stroke-linecap="round" stroke-linejoin="round" stroke-miterlimit="10" stroke-width=".4064"/>
<path d="m115.88 39.164c0.71383 0.7152 0.71383 1.8728 0 2.5866-0.7152 0.71382-1.8728 0.71382-2.5866 0-0.71383-0.71382-0.71383-1.8714 0-2.5866 0.71382-0.71382 1.8714-0.71382 2.5866 0" fill="#fff"/>
<g transform="matrix(.35278 0 0 .35278 -12.587 -5.2872)" clip-path="url(#n)">
<path transform="matrix(.288 0 0 .288 239.18 75.312)" d="m433.89 176.01c7.0258 7.0394 7.0258 18.433 0 25.458-7.0394 7.0258-18.433 7.0258-25.458 0-7.0258-7.0258-7.0258-18.419 0-25.458 7.0258-7.0258 18.419-7.0258 25.458 0" fill="none" stroke="#000" stroke-linecap="round" stroke-linejoin="round" stroke-miterlimit="10" stroke-width="4"/>
</g>
<path d="m115.88 46.067c0.71383 0.71382 0.71383 1.8714 0 2.5866-0.7152 0.71382-1.8728 0.71382-2.5866 0-0.71383-0.7152-0.71383-1.8728 0-2.5866 0.71382-0.7152 1.8714-0.7152 2.5866 0" fill="#fff"/>
<g transform="matrix(.35278 0 0 .35278 -12.587 -5.2872)" clip-path="url(#m)">
<path transform="matrix(.288 0 0 .288 239.18 75.312)" d="m433.89 243.95c7.0258 7.0258 7.0258 18.419 0 25.458-7.0394 7.0258-18.433 7.0258-25.458 0-7.0258-7.0394-7.0258-18.433 0-25.458 7.0258-7.0394 18.419-7.0394 25.458 0" fill="none" stroke="#000" stroke-linecap="round" stroke-linejoin="round" stroke-miterlimit="10" stroke-width="4"/>
</g>
<g fill="#fff" stroke="#000" stroke-linecap="round" stroke-linejoin="round" stroke-miterlimit="10" stroke-width=".4064">
<path d="m103.02 46.067c0.71382 0.71382 0.71382 1.8714 0 2.5866-0.7152 0.71382-1.8728 0.71382-2.5866 0-0.71382-0.7152-0.71382-1.8728 0-2.5866 0.71383-0.7152 1.8714-0.7152 2.5866 0"/>
<path d="m109.17 46.067c0.71383 0.71382 0.71383 1.8714 0 2.5866-0.7152 0.71382-1.8728 0.71382-2.5866 0-0.71383-0.7152-0.71383-1.8728 0-2.5866 0.71382-0.7152 1.8714-0.7152 2.5866 0"/>
<path d="m109.17 32.335c0.71383 0.71382 0.71383 1.8714 0 2.5866-0.7152 0.71382-1.8728 0.71382-2.5866 0-0.71383-0.7152-0.71383-1.8728 0-2.5866 0.71382-0.7152 1.8714-0.7152 2.5866 0"/>
</g>
<g fill="none" stroke="#000" stroke-linecap="round" stroke-linejoin="round" stroke-miterlimit="10" stroke-width=".4064">
<path d="m112.55 40.458h-2.6431"/>
<path d="m105.84 47.359h-2.0808"/>
<path d="m112.55 47.359h-2.6431"/>
<path d="m107.87 35.66v2.7657"/>
</g>
<g>
<g transform="matrix(.35278 0 0 .35278 -12.587 -5.2872)" clip-path="url(#l)">
<g>
<use x="338.16412" y="151.78926" width="100%" height="100%" xlink:href="#e"/>
</g>
</g>
<g transform="matrix(.35278 0 0 .35278 -12.587 -5.2872)" clip-path="url(#k)">
<g>
<use x="337.90533" y="132.20526" width="100%" height="100%" xlink:href="#d"/>
</g>
</g>
<g transform="matrix(.35278 0 0 .35278 -12.587 -5.2872)" clip-path="url(#j)">
<path d="m268.7 140.93c-0.0664-0.34766-0.36719-0.59766-0.72266-0.59766l-1.6406-8e-3c-0.32032 0-0.60547 0.20703-0.70313 0.51172 0 0-0.54297 1.6992-0.76953 2.3984h-0.69531c-0.19531-0.71875-0.65235-2.3711-0.65235-2.3711-0.0898-0.31641-0.3789-0.53906-0.71093-0.53906h-1.0586v-0.8086c0-0.41015-0.32812-0.73828-0.73437-0.73828h-2.6953v-0.82031h2.6953v-1.1758h-9.9062v1.1758h3.0039v0.82031h-3.0039c-0.40625 0-0.73828 0.32813-0.73828 0.73828v0.8086h-1.7383c-0.40625 0-0.73829 0.32812-0.73829 0.73828v3.4102h-0.6289v-3.4102h-1.4727v8.293h1.4727v-3.4102h0.6289v3.4102c0 0.40625 0.33204 0.73828 0.73829 0.73828h2.168c0.35547 0.47656 1.9453 2.6133 1.9453 2.6133 0.14062 0.1875 0.35937 0.29688 0.59375 0.29688h9.4688c0.33203 0 0.62109-0.22266 0.71093-0.53907 0 0 0.46485-1.6523 0.66407-2.3672h0.71093c0.21875 0.69921 0.74219 2.3867 0.74219 2.3867 0.0937 0.3086 0.37891 0.51954 0.70313 0.51954h1.6719c0.35547 0 0.66016-0.25782 0.72656-0.60547 0.29688-1.6641 0.45704-3.6172 0.45704-5.6445 0-2.1211-0.17188-4.1367-0.49219-5.8242m-1.3398 10.598c-0.23046 4e-3 -0.26953 4e-3 -0.48046 4e-3 -0.21875-0.70313-0.74219-2.3867-0.74219-2.3867-0.0977-0.30859-0.38281-0.51953-0.70313-0.51953h-1.8086c-0.33203 0-0.62109 0.22266-0.71094 0.53906 0 0-0.46484 1.6484-0.66406 2.3633h-8.5469c-0.35546-0.47656-1.9453-2.6094-1.9453-2.6094-0.13672-0.1875-0.35937-0.29688-0.59375-0.29688h-1.8008v-6.8242h1.7422c0.40625 0 0.73437-0.32812 0.73437-0.73437v-0.8124h8.4336v0.8125c0 0.40625 0.32812 0.73437 0.73828 0.73437h1.2305c0.19922 0.71875 0.65625 2.3711 0.65625 2.3711 0.0859 0.3164 0.3789 0.53906 0.71093 0.53906h1.793c0.32032 0 0.60547-0.20703 0.70313-0.51172 0 0 0.54297-1.6992 0.76562-2.3945h0.46094c0.23828 1.4805 0.38281 3.1523 0.38281 4.9531 0 1.7109-0.13672 3.3281-0.35547 4.7734"/>
</g>
</g>
<path d="m87.865 37.223h-1.8287v5.3027h1.8287zm0 0" fill="#fff" stroke="#000" stroke-linecap="round" stroke-linejoin="round" stroke-miterlimit="10" stroke-width=".3048"/>
<g fill="none" stroke="#000" stroke-linecap="round" stroke-linejoin="round" stroke-miterlimit="10" stroke-width=".3048">
<path d="m87.789 38.657-1.6771-1.3643"/>
<path d="m87.789 39.432-1.6771-1.3643"/>
<path d="m87.789 40.978-1.6771-1.3643"/>
<path d="m87.789 41.752-1.6771-1.3643"/>
<path d="m87.789 40.205-1.6771-1.3643"/>
<path d="m87.789 42.525-1.6771-1.3643"/>
<path d="m87.865 38.014-0.94533-0.79099"/>
<path d="m87 42.518-0.94533-0.72209"/>
</g>
<path d="m87.865 31.799h-1.8287v5.3027h1.8287zm0 0" fill="#fff" stroke="#000" stroke-linecap="round" stroke-linejoin="round" stroke-miterlimit="10" stroke-width=".3048"/>
<g fill="none" stroke="#000" stroke-linecap="round" stroke-linejoin="round" stroke-miterlimit="10" stroke-width=".3048">
<path d="m87.789 33.234-1.6771-1.3643"/>
<path d="m87.789 34.008-1.6771-1.3643"/>
<path d="m87.789 35.555-1.6771-1.3643"/>
<path d="m87.789 36.328-1.6771-1.3643"/>
<path d="m87.789 34.781-1.6771-1.3643"/>
<path d="m87.789 37.101-1.6771-1.3643"/>
<path d="m87.865 32.59-0.94533-0.79099"/>
<path d="m87 37.094-0.94533-0.72209"/>
</g>
<path d="m77.527 30.663h-1.8287v7.5737h1.8287zm0 0" fill="#4f4f4f" stroke="#000" stroke-linecap="round" stroke-linejoin="round" stroke-miterlimit="10" stroke-width=".4064"/>
<g fill="none" stroke="#000" stroke-linecap="round" stroke-linejoin="round" stroke-miterlimit="10" stroke-width=".2032">
<path d="m77.451 32.714-1.6771-1.9485"/>
<path d="m77.451 33.819-1.6771-1.9485"/>
<path d="m77.451 36.028-1.6771-1.9485"/>
<path d="m77.451 37.132-1.6771-1.9485"/>
<path d="m77.451 34.923-1.6771-1.9485"/>
<path d="m77.451 38.237-1.6771-1.9485"/>
<path d="m77.527 31.793-0.94533-1.13"/>
<path d="m76.662 38.227-0.94533-1.0308"/>
</g>
<path d="m98.203 30.663h-1.8287v7.5737h1.8287zm0 0" fill="#4f4f4f" stroke="#000" stroke-linecap="round" stroke-linejoin="round" stroke-miterlimit="10" stroke-width=".4064"/>
<g fill="none" stroke="#000" stroke-linecap="round" stroke-linejoin="round" stroke-miterlimit="10" stroke-width=".2032">
<path d="m98.127 32.714-1.6771-1.9485"/>
<path d="m98.127 33.819-1.6771-1.9485"/>
<path d="m98.127 36.028-1.6771-1.9485"/>
<path d="m98.127 37.132-1.6771-1.9485"/>
<path d="m98.127 34.923-1.6771-1.9485"/>
<path d="m98.127 38.237-1.6771-1.9485"/>
<path d="m98.203 31.793-0.94533-1.13"/>
<path d="m97.338 38.227-0.94534-1.0308"/>
</g>
<g>
<g transform="matrix(.35278 0 0 .35278 -12.587 -5.2872)" clip-path="url(#i)">
<g>
<use x="320.90317" y="151.78926" width="100%" height="100%" xlink:href="#c"/>
</g>
</g>
<g transform="matrix(.35278 0 0 .35278 -12.587 -5.2872)" clip-path="url(#h)">
<g>
<use x="356.10504" y="132.20526" width="100%" height="100%" xlink:href="#a"/>
</g>
</g>
<g transform="matrix(.35278 0 0 .35278 -12.587 -5.2872)" clip-path="url(#g)">
<g>
<use x="356.10504" y="151.78926" width="100%" height="100%" xlink:href="#a"/>
</g>
</g>
<g transform="matrix(.35278 0 0 .35278 -12.587 -5.2872)" clip-path="url(#f)">
<g>
<use x="337.45093" y="112.90926" width="100%" height="100%" xlink:href="#b"/>
</g>
</g>
</g>
<path d="m107.87 45.328v-2.8388" fill="none" stroke="#000" stroke-linecap="round" stroke-linejoin="round" stroke-miterlimit="10" stroke-width=".4064"/>
<path d="m83.946 44.067h0.60358v4.7294h-0.60358zm0 0" stroke="#000" stroke-linecap="round" stroke-linejoin="round" stroke-miterlimit="10" stroke-width=".4064"/>
<g fill="none" stroke="#000" stroke-miterlimit="10" stroke-width=".508">
<path d="m99.115 41.423h2.3868" stroke-linecap="round" stroke-linejoin="round"/>
<path d="m102.23 41.423-0.73173-0.27423v0.54846z"/>
<path d="m98.384 41.423 0.73173 0.27423v-0.54846z"/>
</g>
</g>
</svg>
