<svg width="34.905mm" height="24.733mm" version="1.1" viewBox="0 0 34.904613 24.73341" xmlns="http://www.w3.org/2000/svg" xmlns:xlink="http://www.w3.org/1999/xlink">
<defs>
<symbol id="g" overflow="visible">
<path d="m1.8125-1.9375h0.57812c0.4375 0 0.5 0.09375 0.5 0.26562 0 0.046875 0 0.10938-0.046875 0.29688-0.015625 0.03125-0.015625 0.046875-0.015625 0.0625 0 0.046875 0.03125 0.078125 0.0625 0.078125 0.0625 0 0.0625-0.03125 0.09375-0.125l0.32812-1.2969c0.015625-0.078125 0.015625-0.078125 0.015625-0.09375s-0.015625-0.078125-0.0625-0.078125c-0.0625 0-0.078125 0.03125-0.09375 0.125-0.125 0.46875-0.26562 0.57812-0.76562 0.57812h-0.54688l0.375-1.5156c0.0625-0.20312 0.0625-0.23438 0.32812-0.23438h0.78125c0.73438 0 0.875 0.20312 0.875 0.65625 0 0.14062 0 0.15625-0.015625 0.32812-0.015625 0.078125-0.015625 0.078125-0.015625 0.10938s0.015625 0.0625 0.078125 0.0625 0.0625-0.03125 0.078125-0.14062l0.125-1.0312c0.015625-0.17188-0.015625-0.17188-0.17188-0.17188h-2.9219c-0.10938 0-0.17188 0-0.17188 0.125 0 0.0625 0.046875 0.0625 0.15625 0.0625 0.23438 0 0.39062 0 0.39062 0.10938 0 0.015625 0 0.03125-0.03125 0.14062l-0.78125 3.1562c-0.0625 0.23438-0.078125 0.28125-0.54688 0.28125-0.09375 0-0.15625 0-0.15625 0.10938 0 0.078125 0.0625 0.078125 0.078125 0.078125 0.17188 0 0.625-0.015625 0.79688-0.015625 0.1875 0 0.6875 0.015625 0.89062 0.015625 0.046875 0 0.125 0 0.125-0.10938 0-0.046875-0.046875-0.0625-0.046875-0.0625-0.015625-0.015625-0.03125-0.015625-0.15625-0.015625-0.14062 0-0.17188 0-0.3125-0.015625-0.17188-0.015625-0.1875-0.03125-0.1875-0.10938 0-0.015625 0-0.046875 0.015625-0.14062z"/>
</symbol>
<symbol id="a" overflow="visible">
<path d="m1.9688-2.3281h1.3594c1.1094 0 2.2188-0.90625 2.2188-1.9062 0-0.75-0.60938-1.3438-1.5938-1.3438h-2l-1.1875 5.5781h0.71875zm0.57812-2.7969h1.1406c0.71875 0 1.2031 0.34375 1.2031 0.9375 0 0.64062-0.59375 1.4062-1.7031 1.4062h-1.125z"/>
</symbol>
<symbol id="f" overflow="visible">
<path d="m2.0156-2.5312h2.4219l0.09375-0.48438h-2.4219l0.42188-2.0156h1.0625 0.28125 1.4219l0.10938-0.51562h-3.4688l-1.1875 5.5469h0.71875z"/>
</symbol>
<symbol id="c" overflow="visible">
<path d="m3.6719-3.375 2.625-2.2031h-0.75l-3.5312 2.9844 0.625-2.9844h-0.6875l-1.1875 5.5781h0.6875l0.39062-1.8281 1.2969-1.0938 1.3438 2.9219h0.75z"/>
</symbol>
<symbol id="e" overflow="visible">
<path d="m1.9688-5.5781-1.1875 5.5781h2.125c1.2969 0 2.3438-0.90625 2.3438-1.7344 0-0.60938-0.5625-1.0625-1.2812-1.1875 0.82812-0.1875 1.625-0.73438 1.625-1.4531 0-0.67188-0.70312-1.2031-1.7188-1.2031zm0.14062 2.4375l0.42188-1.9844h1.0156c0.79688 0 1.4062 0.35938 1.4062 0.84375s-0.6875 1.1406-1.9062 1.1406zm-0.5625 2.6875 0.46875-2.2031h1.1562c0.79688 0 1.4219 0.42188 1.4219 0.98438 0 0.625-0.82812 1.2188-1.8281 1.2188z"/>
</symbol>
<symbol id="b" overflow="visible">
<path d="m7.4062-5.5781h-0.92188l-1.6406 2.75c-0.57812 1-1.0625 1.7969-1.1719 2.0781-0.03125-0.51562-0.17188-1.3438-0.28125-1.9062l-0.48438-2.9219h-0.92188l-1.1875 5.5781h0.625l1.0625-4.9688h0.015625c0.015625 0.5 0.17188 1.4062 0.26562 1.9688l0.48438 2.8281h0.57812l1.5938-2.6875c0.6875-1.1406 0.71875-1.2031 0.95312-1.625l0.28125-0.5-1.0625 4.9844h0.625z"/>
</symbol>
<symbol id="d" overflow="visible">
<path d="m3.9219-2.625c1.125-0.3125 1.7031-1.0625 1.7031-1.6875 0-0.70312-0.70312-1.2656-1.7344-1.2656h-1.9375l-1.1875 5.5781h0.70312l0.53125-2.5469h1.2812l0.95312 2.5469h0.71875zm-1.375-2.5h1.1562c0.90625 0 1.2656 0.42188 1.2656 0.875 0 0.54688-0.5625 1.2188-1.7031 1.2188h-1.1562z"/>
</symbol>
<clipPath id="t">
<path d="m104 86.402h32v20.598h-32z"/>
</clipPath>
<clipPath id="n">
<path d="m108.62 110.48h4.625v4.1641h-4.625z"/>
</clipPath>
<clipPath id="m">
<path d="m183.18 107.22h5.1836v5.9609h-5.1836z"/>
</clipPath>
<clipPath id="l">
<path d="m157.56 120h4.793v6h-4.793z"/>
</clipPath>
<clipPath id="k">
<path d="m175.66 120h5.7617v6h-5.7617z"/>
</clipPath>
<clipPath id="j">
<path d="m194.45 117.66h5.1836v6.0391h-5.1836z"/>
</clipPath>
<clipPath id="i">
<path d="m161.88 92h6.8359v5.9023h-6.8359z"/>
</clipPath>
<clipPath id="h">
<path d="m156.57 142.53h6.918v6.0391h-6.918z"/>
</clipPath>
<clipPath id="s">
<path d="m163.25 107.22h5.1797v5.9609h-5.1797z"/>
</clipPath>
<clipPath id="r">
<path d="m170 133h4.9609v5.9141h-4.9609z"/>
</clipPath>
<clipPath id="q">
<path d="m191 132.41h5v6.0391h-5z"/>
</clipPath>
<clipPath id="p">
<path d="m174 147.45h5.6836v6.0391h-5.6836z"/>
</clipPath>
<clipPath id="o">
<path d="m191 147.16h5.1641v5.8438h-5.1641z"/>
</clipPath>
</defs>
<g transform="translate(-29.651 -57.791)">
<path d="m32.092 69.646h6.0455c0.56362 0 1.0197 0.45613 1.0197 1.0197v3.3624c0 0.56362-0.45613 1.0211-1.0197 1.0211h-6.0455c-0.56224 0-1.0197-0.45751-1.0197-1.0211v-3.3624c0-0.56362 0.45751-1.0197 1.0197-1.0197zm0 0" fill="none" stroke="#000" stroke-linecap="round" stroke-linejoin="round" stroke-miterlimit="10" stroke-width=".40802"/>
<g transform="matrix(.35278 0 0 .35278 -7.0429 27.116)" clip-path="url(#t)">
<path transform="matrix(.28915 0 0 .28915 80.671 81.631)" d="m92.746 20.407h85.555c5.5118 0 9.997 4.4716 9.997 9.997v42.23c0 5.5118-4.4851 9.997-9.997 9.997h-85.555c-5.5254 0-10.01-4.4851-10.01-9.997v-42.23c0-5.5254 4.4851-9.997 10.01-9.997zm0 0" fill="none" stroke="#000" stroke-linecap="round" stroke-linejoin="round" stroke-miterlimit="10" stroke-width="4"/>
</g>
<path d="m32.092 64.354v5.2917" fill="none" stroke="#000" stroke-linecap="round" stroke-linejoin="round" stroke-miterlimit="10" stroke-width=".40802"/>
<path d="m30.974 65.823c-0.63803 0.58015-0.63803 1.5227 0 2.1029 0.63803 0.58153 1.6716 0.58153 2.3096 0 0.63665-0.58015 0.63665-1.5227 0-2.1029-0.63803-0.58153-1.6716-0.58153-2.3096 0" fill="#fff" stroke="#000" stroke-linecap="round" stroke-linejoin="round" stroke-miterlimit="10" stroke-width=".40802"/>
<g transform="matrix(.35278 0 0 .35278 -7.0429 27.116)" clip-path="url(#n)">
<g>
<use x="108.57981" y="114.53444" width="100%" height="100%" xlink:href="#g"/>
</g>
</g>
<g fill="none" stroke="#000" stroke-miterlimit="10">
<g stroke-width=".51003">
<path d="m43.1 69.132h2.3964" stroke-linecap="round" stroke-linejoin="round"/>
<path d="m46.231 69.132-0.7345-0.27561v0.55122z"/>
<path d="m42.365 69.132 0.7345 0.27561v-0.55122z"/>
</g>
<g stroke-linecap="round" stroke-linejoin="round">
<path d="m34.488 80.792c-0.35416 0.34726-0.35416 0.90951 0 1.2554 0.35416 0.34727 0.9288 0.34727 1.283 0 0.35416-0.34589 0.35416-0.90813 0-1.2554-0.35416-0.34589-0.9288-0.34589-1.283 0" stroke-width=".40802"/>
<path d="m38.731 81.48c-0.12763-0.06264-0.25445-0.10288-0.37961-0.10423-0.63528-0.0069-1.3477 0.67386-1.8879 0.83096-0.54157 0.1571-0.90675 0.07579-1.3601 0.113" stroke-width=".40802"/>
<path d="m56.498 66.022-2.9407-0.0014" stroke-width=".40802"/>
<path d="m51.407 62.673 0.04134 1.3119" stroke-width=".40802"/>
</g>
</g>
<path d="m59.837 64.725c0.71658 0.71658 0.71658 1.8796 0 2.5962-0.71796 0.71796-1.8796 0.71796-2.5976 0-0.71658-0.71658-0.71658-1.8796 0-2.5962 0.71796-0.71658 1.8796-0.71658 2.5976 0" fill="#fff" stroke="#000" stroke-linecap="round" stroke-linejoin="round" stroke-miterlimit="10" stroke-width=".40802"/>
<g transform="matrix(.35278 0 0 .35278 -7.0429 27.116)" clip-path="url(#m)">
<g>
<use x="182.64742" y="113.01676" width="100%" height="100%" xlink:href="#a"/>
</g>
</g>
<path d="m50.759 69.264c0.71658 0.71658 0.71658 1.8796 0 2.5962-0.71796 0.71796-1.8796 0.71796-2.5976 0-0.71658-0.71658-0.71658-1.8796 0-2.5962 0.71796-0.71658 1.8796-0.71658 2.5976 0" fill="#fff" stroke="#000" stroke-linecap="round" stroke-linejoin="round" stroke-miterlimit="10" stroke-width=".40802"/>
<g transform="matrix(.35278 0 0 .35278 -7.0429 27.116)" clip-path="url(#l)">
<g>
<use x="156.69826" y="125.73936" width="100%" height="100%" xlink:href="#f"/>
</g>
</g>
<path d="m57.287 69.264c0.71796 0.71658 0.71796 1.8796 0 2.5962-0.71658 0.71796-1.8796 0.71796-2.5962 0-0.71658-0.71658-0.71658-1.8796 0-2.5962 0.71658-0.71658 1.8796-0.71658 2.5962 0" fill="#fff" stroke="#000" stroke-linecap="round" stroke-linejoin="round" stroke-miterlimit="10" stroke-width=".40802"/>
<g transform="matrix(.35278 0 0 .35278 -7.0429 27.116)" clip-path="url(#k)">
<g>
<use x="175.04698" y="125.73936" width="100%" height="100%" xlink:href="#c"/>
</g>
</g>
<path d="m63.816 68.448c0.71658 0.71658 0.71658 1.8796 0 2.5962-0.71796 0.71796-1.8796 0.71796-2.5976 0-0.71658-0.71658-0.71658-1.8796 0-2.5962 0.71796-0.71658 1.8796-0.71658 2.5976 0" fill="#fff" stroke="#000" stroke-linecap="round" stroke-linejoin="round" stroke-miterlimit="10" stroke-width=".40802"/>
<g transform="matrix(.35278 0 0 .35278 -7.0429 27.116)" clip-path="url(#j)">
<g>
<use x="193.81239" y="123.42616" width="100%" height="100%" xlink:href="#e"/>
</g>
</g>
<path d="m52.64 59.335c0.71658 0.71658 0.71658 1.8796 0 2.5962-0.71796 0.71796-1.8796 0.71796-2.5976 0-0.71658-0.71658-0.71658-1.8796 0-2.5962 0.71796-0.71658 1.8796-0.71658 2.5976 0" fill="#fff" stroke="#000" stroke-linecap="round" stroke-linejoin="round" stroke-miterlimit="10" stroke-width=".40802"/>
<g transform="matrix(.35278 0 0 .35278 -7.0429 27.116)" clip-path="url(#i)">
<g>
<use x="161.04643" y="97.691811" width="100%" height="100%" xlink:href="#b"/>
</g>
</g>
<path d="m50.759 77.221c0.71658 0.71658 0.71658 1.8796 0 2.5962-0.71796 0.71658-1.8796 0.71658-2.5976 0-0.71658-0.71658-0.71658-1.8796 0-2.5962 0.71796-0.71796 1.8796-0.71796 2.5976 0" fill="#fff" stroke="#000" stroke-linecap="round" stroke-linejoin="round" stroke-miterlimit="10" stroke-width=".40802"/>
<g transform="matrix(.35278 0 0 .35278 -7.0429 27.116)" clip-path="url(#h)">
<g>
<use x="155.84172" y="148.29306" width="100%" height="100%" xlink:href="#b"/>
</g>
</g>
<path d="m52.816 64.725c0.71658 0.71658 0.71658 1.8796 0 2.5962-0.71796 0.71796-1.8796 0.71796-2.5976 0-0.71658-0.71658-0.71658-1.8796 0-2.5962 0.71796-0.71658 1.8796-0.71658 2.5976 0" fill="#fff" stroke="#000" stroke-linecap="round" stroke-linejoin="round" stroke-miterlimit="10" stroke-width=".40802"/>
<g transform="matrix(.35278 0 0 .35278 -7.0429 27.116)" clip-path="url(#s)">
<g>
<use x="162.69608" y="113.01676" width="100%" height="100%" xlink:href="#a"/>
</g>
</g>
<g fill="none" stroke="#000" stroke-linecap="round" stroke-linejoin="round" stroke-miterlimit="10" stroke-width=".40802">
<path d="m50.307 68.706 0.37345-0.82131"/>
<path d="m56.99 68.785 0.55397-0.97978"/>
<path d="m61.027 68.353-0.99908-0.93431"/>
</g>
<path d="m55.111 73.803c0.71658 0.71658 0.71658 1.8796 0 2.5962-0.71658 0.71796-1.8796 0.71796-2.5962 0-0.71796-0.71658-0.71796-1.8796 0-2.5962 0.71658-0.71658 1.8796-0.71658 2.5962 0" fill="#fff" stroke="#000" stroke-linecap="round" stroke-linejoin="round" stroke-miterlimit="10" stroke-width=".40802"/>
<g transform="matrix(.35278 0 0 .35278 -7.0429 27.116)" clip-path="url(#r)">
<g>
<use x="169.34651" y="138.75111" width="100%" height="100%" xlink:href="#a"/>
</g>
</g>
<path d="m62.591 73.651c0.71796 0.71658 0.71796 1.8796 0 2.5962-0.71658 0.71796-1.8796 0.71796-2.5962 0-0.71658-0.71658-0.71658-1.8796 0-2.5962 0.71658-0.71658 1.8796-0.71658 2.5962 0" fill="#fff" stroke="#000" stroke-linecap="round" stroke-linejoin="round" stroke-miterlimit="10" stroke-width=".40802"/>
<g transform="matrix(.35278 0 0 .35278 -7.0429 27.116)" clip-path="url(#q)">
<g>
<use x="190.45447" y="138.17281" width="100%" height="100%" xlink:href="#a"/>
</g>
</g>
<g fill="none" stroke="#000" stroke-linecap="round" stroke-linejoin="round" stroke-miterlimit="10" stroke-width=".40802">
<path d="m61.763 72.963 0.29077-1.2292"/>
<path d="m52.4 73.63-1.5296-1.593"/>
<path d="m55.852 75.062 3.401-0.0689"/>
<path d="m57.561 71.863 2.158 1.7873"/>
</g>
<path d="m56.675 78.955c0.71658 0.71796 0.71658 1.8796 0 2.5962-0.71658 0.71796-1.8796 0.71796-2.5962 0-0.71796-0.71658-0.71796-1.8783 0-2.5962 0.71658-0.71658 1.8796-0.71658 2.5962 0" fill="#fff" stroke="#000" stroke-linecap="round" stroke-linejoin="round" stroke-miterlimit="10" stroke-width=".40802"/>
<g transform="matrix(.35278 0 0 .35278 -7.0429 27.116)" clip-path="url(#p)">
<g>
<use x="173.31207" y="153.2086" width="100%" height="100%" xlink:href="#c"/>
</g>
</g>
<path d="m62.591 78.853c0.71796 0.71796 0.71796 1.8796 0 2.5962-0.71658 0.71796-1.8796 0.71796-2.5962 0-0.71658-0.71658-0.71658-1.8783 0-2.5962 0.71658-0.71658 1.8796-0.71658 2.5962 0" fill="#fff" stroke="#000" stroke-linecap="round" stroke-linejoin="round" stroke-miterlimit="10" stroke-width=".40802"/>
<g transform="matrix(.35278 0 0 .35278 -7.0429 27.116)" clip-path="url(#o)">
<g>
<use x="190.4265" y="152.91946" width="100%" height="100%" xlink:href="#d"/>
</g>
</g>
<g fill="none" stroke="#000" stroke-linejoin="round" stroke-miterlimit="10">
<g stroke-linecap="round" stroke-width=".40802">
<path d="m52.21 76.364-1.1424 0.89848"/>
<path d="m51.418 79.095 1.9995 0.58704"/>
<path d="m59.253 80.189-1.8369 0.03445"/>
</g>
<g stroke-linecap="square" stroke-width=".30602">
<path d="m35.109 75.049 0.0124 0.53468 0.54846 0.24254-1.1217 0.50987 1.1217 0.52228-1.1093 0.51125 1.1217 0.50987-1.1341 0.50987 1.1217 0.50988-1.1217 0.50987 1.1217 0.50988-0.54846 0.25494v0.21635"/>
<path d="m35.109 64.303 0.0124 0.53606 0.54846 0.24254-1.1217 0.50987 1.1217 0.52228-1.1093 0.50988 1.1217 0.50987-1.1341 0.50988 1.1217 0.50987-1.1217 0.51125 1.1217 0.50987-0.54846 0.25494v0.21635"/>
<path d="m37.702 64.305v2.5122"/>
<path d="m38.467 66.191-0.0124 1.4538h-1.5296l0.0124-1.4662"/>
<path d="m38.461 66.829h-1.5296"/>
<path d="m37.702 67.645-0.0124 1.9775"/>
</g>
</g>
</g>
</svg>
